<svg xmlns="http://www.w3.org/2000/svg" xmlns:xlink="http://www.w3.org/1999/xlink" width="132" zoomAndPan="magnify" viewBox="0 0 98.88 30.000001" height="40" preserveAspectRatio="xMidYMid meet" version="1.0"><defs><g/><clipPath id="e75ad91c62"><path d="M 1.535156 0 L 97.226562 0 L 97.226562 29.03125 L 1.535156 29.03125 Z M 1.535156 0 " clip-rule="nonzero"/></clipPath><clipPath id="2ba1eaf150"><path d="M 11.378906 1.230469 L 34 1.230469 L 34 27.804688 L 11.378906 27.804688 Z M 11.378906 1.230469 " clip-rule="nonzero"/></clipPath><clipPath id="26fb57a949"><path d="M 20 3 L 37.84375 3 L 37.84375 26 L 20 26 Z M 20 3 " clip-rule="nonzero"/></clipPath><clipPath id="d5e716c4a1"><path d="M 11.378906 11.226562 L 37.882812 11.226562 L 37.882812 19.121094 L 11.378906 19.121094 Z M 11.378906 11.226562 " clip-rule="nonzero"/></clipPath></defs><g clip-path="url(#e75ad91c62)"><path fill="#ffffff" d="M 1.535156 0 L 97.34375 0 L 97.34375 29.03125 L 1.535156 29.03125 Z M 1.535156 0 " fill-opacity="1" fill-rule="nonzero"/><path fill="#ffffff" d="M 1.535156 0 L 97.34375 0 L 97.34375 29.03125 L 1.535156 29.03125 Z M 1.535156 0 " fill-opacity="1" fill-rule="nonzero"/></g><g clip-path="url(#2ba1eaf150)"><path fill="#163b6d" d="M 27.367188 26.238281 C 20.90625 26.238281 15.667969 20.988281 15.667969 14.515625 C 15.667969 8.042969 20.90625 2.796875 27.367188 2.796875 C 29.464844 2.796875 31.429688 3.351562 33.132812 4.320312 C 30.832031 2.394531 27.867188 1.234375 24.636719 1.234375 C 17.3125 1.234375 11.375 7.179688 11.375 14.515625 C 11.375 21.851562 17.3125 27.800781 24.636719 27.800781 C 27.867188 27.800781 30.832031 26.640625 33.132812 24.714844 C 31.429688 25.679688 29.464844 26.238281 27.367188 26.238281 " fill-opacity="1" fill-rule="nonzero"/></g><g clip-path="url(#26fb57a949)"><path fill="#4f4c4c" d="M 25.066406 23.875 C 30.226562 23.875 34.410156 19.6875 34.410156 14.515625 C 34.410156 9.347656 30.226562 5.15625 25.066406 5.15625 C 23.394531 5.15625 21.824219 5.601562 20.464844 6.375 C 22.300781 4.835938 24.664062 3.910156 27.246094 3.910156 C 33.097656 3.910156 37.835938 8.660156 37.835938 14.515625 C 37.835938 20.375 33.097656 25.125 27.246094 25.125 C 24.664062 25.125 22.300781 24.199219 20.464844 22.660156 C 21.824219 23.433594 23.394531 23.875 25.066406 23.875 " fill-opacity="1" fill-rule="nonzero"/></g><g clip-path="url(#d5e716c4a1)"><path fill="#ffffff" d="M 11.378906 11.226562 L 37.890625 11.226562 L 37.890625 19.121094 L 11.378906 19.121094 Z M 11.378906 11.226562 " fill-opacity="1" fill-rule="nonzero"/></g><g fill="#163b6d" fill-opacity="1"><g transform="translate(10.631057, 15.878083)"><g><path d="M 0.828125 -3.265625 C 1.203125 -3.617188 1.707031 -3.796875 2.34375 -3.796875 C 2.988281 -3.796875 3.5 -3.617188 3.875 -3.265625 C 4.25 -2.921875 4.4375 -2.453125 4.4375 -1.859375 C 4.4375 -1.265625 4.25 -0.789062 3.875 -0.4375 C 3.5 -0.09375 2.988281 0.078125 2.34375 0.078125 C 1.707031 0.078125 1.203125 -0.09375 0.828125 -0.4375 C 0.453125 -0.789062 0.265625 -1.265625 0.265625 -1.859375 C 0.265625 -2.453125 0.453125 -2.921875 0.828125 -3.265625 Z M 1.453125 -0.609375 C 1.671875 -0.304688 1.96875 -0.15625 2.34375 -0.15625 C 2.71875 -0.15625 3.015625 -0.304688 3.234375 -0.609375 C 3.453125 -0.910156 3.5625 -1.328125 3.5625 -1.859375 C 3.5625 -2.390625 3.453125 -2.804688 3.234375 -3.109375 C 3.015625 -3.410156 2.71875 -3.5625 2.34375 -3.5625 C 1.96875 -3.5625 1.671875 -3.410156 1.453125 -3.109375 C 1.234375 -2.804688 1.125 -2.390625 1.125 -1.859375 C 1.125 -1.328125 1.234375 -0.910156 1.453125 -0.609375 Z M 1.453125 -0.609375 "/></g></g></g><g fill="#163b6d" fill-opacity="1"><g transform="translate(15.295084, 15.878083)"><g><path d="M 3.328125 -2.65625 C 3.328125 -2.488281 3.296875 -2.332031 3.234375 -2.1875 C 3.109375 -1.914062 2.882812 -1.726562 2.5625 -1.625 C 2.46875 -1.59375 2.378906 -1.578125 2.296875 -1.578125 C 2.046875 -1.578125 1.820312 -1.640625 1.625 -1.765625 L 1.625 -1.828125 C 1.894531 -1.816406 2.109375 -1.898438 2.265625 -2.078125 C 2.410156 -2.234375 2.484375 -2.4375 2.484375 -2.6875 C 2.484375 -2.945312 2.421875 -3.144531 2.296875 -3.28125 C 2.171875 -3.425781 2.003906 -3.5 1.796875 -3.5 L 1.4375 -3.5 L 1.4375 -0.390625 C 1.4375 -0.296875 1.46875 -0.210938 1.53125 -0.140625 C 1.601562 -0.078125 1.6875 -0.046875 1.78125 -0.046875 L 1.859375 -0.046875 L 1.859375 0 L 0.234375 0 L 0.234375 -0.046875 L 0.3125 -0.046875 C 0.40625 -0.046875 0.484375 -0.078125 0.546875 -0.140625 C 0.609375 -0.210938 0.640625 -0.296875 0.640625 -0.390625 L 0.640625 -3.359375 C 0.640625 -3.441406 0.609375 -3.515625 0.546875 -3.578125 C 0.484375 -3.640625 0.40625 -3.671875 0.3125 -3.671875 L 0.234375 -3.671875 L 0.234375 -3.71875 L 2.015625 -3.71875 C 2.441406 -3.71875 2.765625 -3.625 2.984375 -3.4375 C 3.210938 -3.25 3.328125 -2.988281 3.328125 -2.65625 Z M 3.328125 -2.65625 "/></g></g></g><g fill="#163b6d" fill-opacity="1"><g transform="translate(18.774511, 15.878083)"><g><path d="M 2.171875 -3.5 L 2.171875 -0.375 C 2.171875 -0.289062 2.203125 -0.210938 2.265625 -0.140625 C 2.335938 -0.078125 2.421875 -0.046875 2.515625 -0.046875 L 2.578125 -0.046875 L 2.578125 0 L 0.96875 0 L 0.96875 -0.046875 L 1.03125 -0.046875 C 1.125 -0.046875 1.203125 -0.078125 1.265625 -0.140625 C 1.328125 -0.210938 1.363281 -0.289062 1.375 -0.375 L 1.375 -3.5 L 0.65625 -3.5 C 0.5 -3.5 0.367188 -3.445312 0.265625 -3.34375 C 0.171875 -3.25 0.125 -3.117188 0.125 -2.953125 L 0.125 -2.890625 L 0.078125 -2.890625 L 0.078125 -3.8125 C 0.222656 -3.757812 0.429688 -3.726562 0.703125 -3.71875 L 2.84375 -3.71875 C 2.945312 -3.71875 3.0625 -3.726562 3.1875 -3.75 C 3.320312 -3.769531 3.414062 -3.789062 3.46875 -3.8125 L 3.46875 -2.890625 L 3.421875 -2.890625 L 3.421875 -2.953125 C 3.421875 -3.171875 3.335938 -3.328125 3.171875 -3.421875 C 3.085938 -3.472656 2.992188 -3.5 2.890625 -3.5 Z M 2.171875 -3.5 "/></g></g></g><g fill="#163b6d" fill-opacity="1"><g transform="translate(22.312372, 15.878083)"><g><path d="M 0.296875 -0.046875 C 0.390625 -0.046875 0.46875 -0.078125 0.53125 -0.140625 C 0.59375 -0.210938 0.625 -0.296875 0.625 -0.390625 L 0.625 -3.34375 C 0.625 -3.425781 0.59375 -3.5 0.53125 -3.5625 C 0.46875 -3.632812 0.390625 -3.671875 0.296875 -3.671875 L 0.21875 -3.671875 L 0.21875 -3.71875 L 1.84375 -3.71875 L 1.828125 -3.671875 L 1.765625 -3.671875 C 1.671875 -3.671875 1.585938 -3.632812 1.515625 -3.5625 C 1.453125 -3.5 1.421875 -3.425781 1.421875 -3.34375 L 1.421875 -0.390625 C 1.421875 -0.296875 1.453125 -0.210938 1.515625 -0.140625 C 1.585938 -0.078125 1.671875 -0.046875 1.765625 -0.046875 L 1.828125 -0.046875 L 1.84375 0 L 0.21875 0 L 0.21875 -0.046875 Z M 0.296875 -0.046875 "/></g></g></g><g fill="#163b6d" fill-opacity="1"><g transform="translate(24.362844, 15.878083)"><g><path d="M 5.03125 -0.046875 L 5.109375 -0.046875 L 5.109375 0 L 3.515625 0 L 3.515625 -0.046875 L 3.609375 -0.046875 C 3.660156 -0.046875 3.707031 -0.0664062 3.75 -0.109375 C 3.789062 -0.160156 3.8125 -0.21875 3.8125 -0.28125 L 3.609375 -2.203125 L 2.609375 -0.484375 C 2.472656 -0.265625 2.40625 -0.0664062 2.40625 0.109375 L 2.34375 0.109375 L 0.984375 -2.1875 L 0.78125 -0.28125 C 0.769531 -0.21875 0.785156 -0.160156 0.828125 -0.109375 C 0.867188 -0.0664062 0.921875 -0.046875 0.984375 -0.046875 L 1.0625 -0.046875 L 1.0625 0 L -0.046875 0 L -0.046875 -0.046875 L 0.03125 -0.046875 C 0.132812 -0.046875 0.222656 -0.078125 0.296875 -0.140625 C 0.367188 -0.203125 0.410156 -0.285156 0.421875 -0.390625 L 0.859375 -3.796875 L 0.90625 -3.796875 L 2.5625 -1.078125 L 4.140625 -3.796875 L 4.1875 -3.796875 L 4.640625 -0.390625 C 4.660156 -0.285156 4.707031 -0.203125 4.78125 -0.140625 C 4.851562 -0.078125 4.9375 -0.046875 5.03125 -0.046875 Z M 5.03125 -0.046875 "/></g></g></g><g fill="#163b6d" fill-opacity="1"><g transform="translate(29.425279, 15.878083)"><g><path d="M 4.203125 -3.671875 L 4.109375 -3.671875 C 4.035156 -3.671875 3.96875 -3.644531 3.90625 -3.59375 C 3.851562 -3.539062 3.828125 -3.484375 3.828125 -3.421875 L 3.828125 -1.34375 C 3.828125 -0.90625 3.691406 -0.554688 3.421875 -0.296875 C 3.148438 -0.046875 2.773438 0.078125 2.296875 0.078125 C 1.734375 0.078125 1.300781 -0.046875 1 -0.296875 C 0.707031 -0.546875 0.5625 -0.894531 0.5625 -1.34375 L 0.5625 -3.40625 C 0.5625 -3.507812 0.515625 -3.585938 0.421875 -3.640625 C 0.378906 -3.660156 0.332031 -3.671875 0.28125 -3.671875 L 0.203125 -3.671875 L 0.203125 -3.71875 L 1.734375 -3.71875 L 1.734375 -3.671875 L 1.640625 -3.671875 C 1.566406 -3.671875 1.503906 -3.644531 1.453125 -3.59375 C 1.398438 -3.539062 1.367188 -3.476562 1.359375 -3.40625 L 1.359375 -1.375 C 1.359375 -1 1.453125 -0.703125 1.640625 -0.484375 C 1.828125 -0.265625 2.082031 -0.15625 2.40625 -0.15625 C 2.726562 -0.15625 2.984375 -0.257812 3.171875 -0.46875 C 3.359375 -0.675781 3.453125 -0.957031 3.453125 -1.3125 L 3.453125 -3.40625 C 3.441406 -3.507812 3.394531 -3.585938 3.3125 -3.640625 C 3.269531 -3.660156 3.222656 -3.671875 3.171875 -3.671875 L 3.09375 -3.671875 L 3.09375 -3.71875 L 4.203125 -3.71875 Z M 4.203125 -3.671875 "/></g></g></g><g fill="#163b6d" fill-opacity="1"><g transform="translate(33.786516, 15.878083)"><g><path d="M 5.03125 -0.046875 L 5.109375 -0.046875 L 5.109375 0 L 3.515625 0 L 3.515625 -0.046875 L 3.609375 -0.046875 C 3.660156 -0.046875 3.707031 -0.0664062 3.75 -0.109375 C 3.789062 -0.160156 3.8125 -0.21875 3.8125 -0.28125 L 3.609375 -2.203125 L 2.609375 -0.484375 C 2.472656 -0.265625 2.40625 -0.0664062 2.40625 0.109375 L 2.34375 0.109375 L 0.984375 -2.1875 L 0.78125 -0.28125 C 0.769531 -0.21875 0.785156 -0.160156 0.828125 -0.109375 C 0.867188 -0.0664062 0.921875 -0.046875 0.984375 -0.046875 L 1.0625 -0.046875 L 1.0625 0 L -0.046875 0 L -0.046875 -0.046875 L 0.03125 -0.046875 C 0.132812 -0.046875 0.222656 -0.078125 0.296875 -0.140625 C 0.367188 -0.203125 0.410156 -0.285156 0.421875 -0.390625 L 0.859375 -3.796875 L 0.90625 -3.796875 L 2.5625 -1.078125 L 4.140625 -3.796875 L 4.1875 -3.796875 L 4.640625 -0.390625 C 4.660156 -0.285156 4.707031 -0.203125 4.78125 -0.140625 C 4.851562 -0.078125 4.9375 -0.046875 5.03125 -0.046875 Z M 5.03125 -0.046875 "/></g></g></g><g fill="#4f4c4c" fill-opacity="1"><g transform="translate(20.143963, 18.632556)"><g><path d="M 0.53125 0.015625 C 0.445312 0.015625 0.375 0 0.3125 -0.03125 C 0.25 -0.0625 0.195312 -0.101562 0.15625 -0.15625 C 0.125 -0.207031 0.109375 -0.269531 0.109375 -0.34375 L 0.3125 -0.34375 C 0.320312 -0.289062 0.34375 -0.242188 0.375 -0.203125 C 0.414062 -0.171875 0.46875 -0.15625 0.53125 -0.15625 C 0.601562 -0.15625 0.65625 -0.171875 0.6875 -0.203125 C 0.726562 -0.234375 0.75 -0.28125 0.75 -0.34375 C 0.75 -0.382812 0.738281 -0.414062 0.71875 -0.4375 C 0.695312 -0.46875 0.664062 -0.488281 0.625 -0.5 C 0.59375 -0.507812 0.546875 -0.523438 0.484375 -0.546875 C 0.398438 -0.566406 0.332031 -0.585938 0.28125 -0.609375 C 0.238281 -0.628906 0.195312 -0.660156 0.15625 -0.703125 C 0.125 -0.753906 0.109375 -0.816406 0.109375 -0.890625 C 0.109375 -0.960938 0.125 -1.023438 0.15625 -1.078125 C 0.195312 -1.128906 0.25 -1.171875 0.3125 -1.203125 C 0.375 -1.234375 0.445312 -1.25 0.53125 -1.25 C 0.644531 -1.25 0.738281 -1.21875 0.8125 -1.15625 C 0.894531 -1.09375 0.941406 -1.007812 0.953125 -0.90625 L 0.71875 -0.90625 C 0.71875 -0.945312 0.695312 -0.984375 0.65625 -1.015625 C 0.625 -1.054688 0.570312 -1.078125 0.5 -1.078125 C 0.445312 -1.078125 0.398438 -1.0625 0.359375 -1.03125 C 0.328125 -1 0.3125 -0.957031 0.3125 -0.90625 C 0.3125 -0.863281 0.320312 -0.828125 0.34375 -0.796875 C 0.363281 -0.773438 0.390625 -0.757812 0.421875 -0.75 C 0.460938 -0.738281 0.515625 -0.722656 0.578125 -0.703125 C 0.660156 -0.679688 0.726562 -0.660156 0.78125 -0.640625 C 0.832031 -0.617188 0.875 -0.582031 0.90625 -0.53125 C 0.9375 -0.488281 0.953125 -0.425781 0.953125 -0.34375 C 0.953125 -0.28125 0.9375 -0.222656 0.90625 -0.171875 C 0.875 -0.117188 0.828125 -0.0703125 0.765625 -0.03125 C 0.703125 0 0.625 0.015625 0.53125 0.015625 Z M 0.53125 0.015625 "/></g></g></g><g fill="#4f4c4c" fill-opacity="1"><g transform="translate(21.571279, 18.632556)"><g><path d="M 0.328125 -1.0625 L 0.328125 -0.703125 L 0.75 -0.703125 L 0.75 -0.546875 L 0.328125 -0.546875 L 0.328125 -0.171875 L 0.8125 -0.171875 L 0.8125 0 L 0.125 0 L 0.125 -1.234375 L 0.8125 -1.234375 L 0.8125 -1.0625 Z M 0.328125 -1.0625 "/></g></g></g><g fill="#4f4c4c" fill-opacity="1"><g transform="translate(22.856942, 18.632556)"><g><path d="M 1.140625 0 L 0.9375 0 L 0.328125 -0.921875 L 0.328125 0 L 0.125 0 L 0.125 -1.234375 L 0.328125 -1.234375 L 0.9375 -0.3125 L 0.9375 -1.234375 L 1.140625 -1.234375 Z M 1.140625 0 "/></g></g></g><g fill="#4f4c4c" fill-opacity="1"><g transform="translate(24.491429, 18.632556)"><g><path d="M 0.328125 -1.234375 L 0.328125 0 L 0.125 0 L 0.125 -1.234375 Z M 0.328125 -1.234375 "/></g></g></g><g fill="#4f4c4c" fill-opacity="1"><g transform="translate(25.316712, 18.632556)"><g><path d="M 0.6875 0.015625 C 0.570312 0.015625 0.46875 -0.0078125 0.375 -0.0625 C 0.28125 -0.113281 0.203125 -0.1875 0.140625 -0.28125 C 0.0859375 -0.382812 0.0625 -0.492188 0.0625 -0.609375 C 0.0625 -0.734375 0.0859375 -0.84375 0.140625 -0.9375 C 0.203125 -1.03125 0.28125 -1.101562 0.375 -1.15625 C 0.46875 -1.21875 0.570312 -1.25 0.6875 -1.25 C 0.800781 -1.25 0.90625 -1.21875 1 -1.15625 C 1.101562 -1.101562 1.179688 -1.03125 1.234375 -0.9375 C 1.285156 -0.84375 1.3125 -0.734375 1.3125 -0.609375 C 1.3125 -0.492188 1.285156 -0.382812 1.234375 -0.28125 C 1.179688 -0.1875 1.101562 -0.113281 1 -0.0625 C 0.90625 -0.0078125 0.800781 0.015625 0.6875 0.015625 Z M 0.6875 -0.15625 C 0.769531 -0.15625 0.84375 -0.175781 0.90625 -0.21875 C 0.96875 -0.257812 1.015625 -0.3125 1.046875 -0.375 C 1.085938 -0.445312 1.109375 -0.523438 1.109375 -0.609375 C 1.109375 -0.703125 1.085938 -0.78125 1.046875 -0.84375 C 1.015625 -0.914062 0.96875 -0.96875 0.90625 -1 C 0.84375 -1.039062 0.769531 -1.0625 0.6875 -1.0625 C 0.613281 -1.0625 0.539062 -1.039062 0.46875 -1 C 0.40625 -0.96875 0.351562 -0.914062 0.3125 -0.84375 C 0.28125 -0.78125 0.265625 -0.703125 0.265625 -0.609375 C 0.265625 -0.523438 0.28125 -0.445312 0.3125 -0.375 C 0.351562 -0.3125 0.40625 -0.257812 0.46875 -0.21875 C 0.539062 -0.175781 0.613281 -0.15625 0.6875 -0.15625 Z M 0.6875 -0.15625 "/></g></g></g><g fill="#4f4c4c" fill-opacity="1"><g transform="translate(27.062754, 18.632556)"><g><path d="M 0.765625 0 L 0.484375 -0.484375 L 0.328125 -0.484375 L 0.328125 0 L 0.125 0 L 0.125 -1.234375 L 0.5625 -1.234375 C 0.65625 -1.234375 0.734375 -1.210938 0.796875 -1.171875 C 0.859375 -1.140625 0.90625 -1.097656 0.9375 -1.046875 C 0.96875 -0.992188 0.984375 -0.929688 0.984375 -0.859375 C 0.984375 -0.773438 0.957031 -0.703125 0.90625 -0.640625 C 0.863281 -0.578125 0.796875 -0.535156 0.703125 -0.515625 L 1.015625 0 Z M 0.328125 -0.65625 L 0.5625 -0.65625 C 0.632812 -0.65625 0.6875 -0.671875 0.71875 -0.703125 C 0.757812 -0.742188 0.78125 -0.796875 0.78125 -0.859375 C 0.78125 -0.921875 0.757812 -0.96875 0.71875 -1 C 0.6875 -1.039062 0.632812 -1.0625 0.5625 -1.0625 L 0.328125 -1.0625 Z M 0.328125 -0.65625 "/></g></g></g><g fill="#4f4c4c" fill-opacity="1"><g transform="translate(28.53965, 18.632556)"><g><path d="M 0.53125 0.015625 C 0.445312 0.015625 0.375 0 0.3125 -0.03125 C 0.25 -0.0625 0.195312 -0.101562 0.15625 -0.15625 C 0.125 -0.207031 0.109375 -0.269531 0.109375 -0.34375 L 0.3125 -0.34375 C 0.320312 -0.289062 0.34375 -0.242188 0.375 -0.203125 C 0.414062 -0.171875 0.46875 -0.15625 0.53125 -0.15625 C 0.601562 -0.15625 0.65625 -0.171875 0.6875 -0.203125 C 0.726562 -0.234375 0.75 -0.28125 0.75 -0.34375 C 0.75 -0.382812 0.738281 -0.414062 0.71875 -0.4375 C 0.695312 -0.46875 0.664062 -0.488281 0.625 -0.5 C 0.59375 -0.507812 0.546875 -0.523438 0.484375 -0.546875 C 0.398438 -0.566406 0.332031 -0.585938 0.28125 -0.609375 C 0.238281 -0.628906 0.195312 -0.660156 0.15625 -0.703125 C 0.125 -0.753906 0.109375 -0.816406 0.109375 -0.890625 C 0.109375 -0.960938 0.125 -1.023438 0.15625 -1.078125 C 0.195312 -1.128906 0.25 -1.171875 0.3125 -1.203125 C 0.375 -1.234375 0.445312 -1.25 0.53125 -1.25 C 0.644531 -1.25 0.738281 -1.21875 0.8125 -1.15625 C 0.894531 -1.09375 0.941406 -1.007812 0.953125 -0.90625 L 0.71875 -0.90625 C 0.71875 -0.945312 0.695312 -0.984375 0.65625 -1.015625 C 0.625 -1.054688 0.570312 -1.078125 0.5 -1.078125 C 0.445312 -1.078125 0.398438 -1.0625 0.359375 -1.03125 C 0.328125 -1 0.3125 -0.957031 0.3125 -0.90625 C 0.3125 -0.863281 0.320312 -0.828125 0.34375 -0.796875 C 0.363281 -0.773438 0.390625 -0.757812 0.421875 -0.75 C 0.460938 -0.738281 0.515625 -0.722656 0.578125 -0.703125 C 0.660156 -0.679688 0.726562 -0.660156 0.78125 -0.640625 C 0.832031 -0.617188 0.875 -0.582031 0.90625 -0.53125 C 0.9375 -0.488281 0.953125 -0.425781 0.953125 -0.34375 C 0.953125 -0.28125 0.9375 -0.222656 0.90625 -0.171875 C 0.875 -0.117188 0.828125 -0.0703125 0.765625 -0.03125 C 0.703125 0 0.625 0.015625 0.53125 0.015625 Z M 0.53125 0.015625 "/></g></g></g><g fill="#000000" fill-opacity="1"><g transform="translate(49.148154, 9.435497)"><g><path d="M 1.046875 -4.171875 C 1.535156 -4.617188 2.1875 -4.84375 3 -4.84375 C 3.8125 -4.84375 4.457031 -4.617188 4.9375 -4.171875 C 5.425781 -3.734375 5.671875 -3.132812 5.671875 -2.375 C 5.671875 -1.613281 5.425781 -1.007812 4.9375 -0.5625 C 4.457031 -0.125 3.8125 0.09375 3 0.09375 C 2.1875 0.09375 1.535156 -0.125 1.046875 -0.5625 C 0.566406 -1.007812 0.328125 -1.613281 0.328125 -2.375 C 0.328125 -3.132812 0.566406 -3.734375 1.046875 -4.171875 Z M 1.859375 -0.765625 C 2.140625 -0.378906 2.519531 -0.1875 3 -0.1875 C 3.476562 -0.1875 3.859375 -0.378906 4.140625 -0.765625 C 4.421875 -1.160156 4.5625 -1.695312 4.5625 -2.375 C 4.5625 -3.050781 4.421875 -3.582031 4.140625 -3.96875 C 3.859375 -4.363281 3.476562 -4.5625 3 -4.5625 C 2.519531 -4.5625 2.140625 -4.363281 1.859375 -3.96875 C 1.578125 -3.582031 1.4375 -3.050781 1.4375 -2.375 C 1.4375 -1.695312 1.578125 -1.160156 1.859375 -0.765625 Z M 1.859375 -0.765625 "/></g></g></g><g fill="#000000" fill-opacity="1"><g transform="translate(54.960444, 9.435497)"><g><path d="M 4.25 -3.390625 C 4.25 -3.179688 4.207031 -2.984375 4.125 -2.796875 C 3.976562 -2.441406 3.695312 -2.195312 3.28125 -2.0625 C 3.15625 -2.019531 3.039062 -2 2.9375 -2 C 2.613281 -2 2.328125 -2.085938 2.078125 -2.265625 L 2.078125 -2.328125 C 2.410156 -2.316406 2.679688 -2.425781 2.890625 -2.65625 C 3.078125 -2.851562 3.171875 -3.113281 3.171875 -3.4375 C 3.171875 -3.757812 3.09375 -4.007812 2.9375 -4.1875 C 2.78125 -4.375 2.566406 -4.46875 2.296875 -4.46875 L 1.84375 -4.46875 L 1.84375 -0.5 C 1.84375 -0.375 1.882812 -0.269531 1.96875 -0.1875 C 2.0625 -0.101562 2.164062 -0.0625 2.28125 -0.0625 L 2.359375 -0.0625 L 2.359375 0 L 0.3125 0 L 0.3125 -0.0625 L 0.390625 -0.0625 C 0.503906 -0.0625 0.601562 -0.101562 0.6875 -0.1875 C 0.78125 -0.269531 0.828125 -0.375 0.828125 -0.5 L 0.828125 -4.28125 C 0.828125 -4.394531 0.78125 -4.488281 0.6875 -4.5625 C 0.601562 -4.632812 0.503906 -4.671875 0.390625 -4.671875 L 0.3125 -4.671875 L 0.3125 -4.75 L 2.5625 -4.75 C 3.113281 -4.75 3.53125 -4.628906 3.8125 -4.390625 C 4.101562 -4.140625 4.25 -3.804688 4.25 -3.390625 Z M 4.25 -3.390625 "/></g></g></g><g fill="#000000" fill-opacity="1"><g transform="translate(59.47886, 9.435497)"><g><path d="M 2.78125 -4.46875 L 2.78125 -0.484375 C 2.78125 -0.367188 2.820312 -0.269531 2.90625 -0.1875 C 2.988281 -0.101562 3.085938 -0.0625 3.203125 -0.0625 L 3.28125 -0.0625 L 3.296875 0 L 1.234375 0 L 1.234375 -0.0625 L 1.328125 -0.0625 C 1.429688 -0.0625 1.523438 -0.101562 1.609375 -0.1875 C 1.703125 -0.269531 1.75 -0.367188 1.75 -0.484375 L 1.75 -4.46875 L 0.84375 -4.46875 C 0.632812 -4.46875 0.46875 -4.398438 0.34375 -4.265625 C 0.21875 -4.140625 0.15625 -3.976562 0.15625 -3.78125 L 0.15625 -3.703125 L 0.09375 -3.703125 L 0.09375 -4.875 C 0.28125 -4.800781 0.546875 -4.757812 0.890625 -4.75 L 3.625 -4.75 C 3.769531 -4.75 3.921875 -4.757812 4.078125 -4.78125 C 4.242188 -4.8125 4.359375 -4.84375 4.421875 -4.875 L 4.421875 -3.703125 L 4.359375 -3.703125 L 4.359375 -3.78125 C 4.359375 -4.0625 4.253906 -4.257812 4.046875 -4.375 C 3.941406 -4.4375 3.820312 -4.46875 3.6875 -4.46875 Z M 2.78125 -4.46875 "/></g></g></g><g fill="#000000" fill-opacity="1"><g transform="translate(63.990497, 9.435497)"><g><path d="M 0.375 -0.0625 C 0.488281 -0.0625 0.585938 -0.101562 0.671875 -0.1875 C 0.753906 -0.269531 0.800781 -0.375 0.8125 -0.5 L 0.8125 -4.265625 C 0.800781 -4.378906 0.753906 -4.472656 0.671875 -4.546875 C 0.585938 -4.628906 0.488281 -4.671875 0.375 -4.671875 L 0.28125 -4.671875 L 0.28125 -4.75 L 2.34375 -4.75 L 2.34375 -4.671875 L 2.265625 -4.671875 C 2.140625 -4.671875 2.035156 -4.628906 1.953125 -4.546875 C 1.867188 -4.472656 1.828125 -4.378906 1.828125 -4.265625 L 1.828125 -0.5 C 1.828125 -0.375 1.867188 -0.269531 1.953125 -0.1875 C 2.035156 -0.101562 2.140625 -0.0625 2.265625 -0.0625 L 2.34375 -0.0625 L 2.34375 0 L 0.28125 0 L 0.28125 -0.0625 Z M 0.375 -0.0625 "/></g></g></g><g fill="#000000" fill-opacity="1"><g transform="translate(66.605352, 9.435497)"><g><path d="M 6.421875 -0.0625 L 6.53125 -0.0625 L 6.53125 0 L 4.5 0 L 4.5 -0.0625 L 4.59375 -0.0625 C 4.675781 -0.0625 4.742188 -0.09375 4.796875 -0.15625 C 4.847656 -0.21875 4.867188 -0.285156 4.859375 -0.359375 L 4.59375 -2.8125 L 3.328125 -0.609375 C 3.160156 -0.335938 3.070312 -0.0859375 3.0625 0.140625 L 3 0.140625 L 1.25 -2.796875 L 0.984375 -0.359375 C 0.972656 -0.285156 0.992188 -0.21875 1.046875 -0.15625 C 1.109375 -0.09375 1.175781 -0.0625 1.25 -0.0625 L 1.359375 -0.0625 L 1.359375 0 L -0.0625 0 L -0.0625 -0.0625 L 0.046875 -0.0625 C 0.171875 -0.0625 0.28125 -0.0976562 0.375 -0.171875 C 0.46875 -0.253906 0.523438 -0.363281 0.546875 -0.5 L 1.109375 -4.84375 L 1.171875 -4.84375 L 3.265625 -1.390625 L 5.296875 -4.84375 L 5.34375 -4.84375 L 5.921875 -0.5 C 5.941406 -0.363281 6 -0.253906 6.09375 -0.171875 C 6.1875 -0.0976562 6.296875 -0.0625 6.421875 -0.0625 Z M 6.421875 -0.0625 "/></g></g></g><g fill="#000000" fill-opacity="1"><g transform="translate(72.94604, 9.435497)"><g><path d="M 5.359375 -4.671875 L 5.234375 -4.671875 C 5.140625 -4.671875 5.054688 -4.640625 4.984375 -4.578125 C 4.921875 -4.523438 4.890625 -4.453125 4.890625 -4.359375 L 4.890625 -1.71875 C 4.890625 -1.15625 4.710938 -0.710938 4.359375 -0.390625 C 4.015625 -0.0664062 3.539062 0.09375 2.9375 0.09375 C 2.21875 0.09375 1.664062 -0.0625 1.28125 -0.375 C 0.90625 -0.695312 0.71875 -1.140625 0.71875 -1.703125 L 0.71875 -4.34375 C 0.71875 -4.476562 0.660156 -4.578125 0.546875 -4.640625 C 0.492188 -4.660156 0.429688 -4.671875 0.359375 -4.671875 L 0.25 -4.671875 L 0.25 -4.75 L 2.203125 -4.75 L 2.203125 -4.671875 L 2.109375 -4.671875 C 2.003906 -4.671875 1.914062 -4.640625 1.84375 -4.578125 C 1.78125 -4.523438 1.75 -4.453125 1.75 -4.359375 L 1.75 -1.765625 C 1.75 -1.285156 1.863281 -0.90625 2.09375 -0.625 C 2.332031 -0.34375 2.65625 -0.203125 3.0625 -0.203125 C 3.476562 -0.203125 3.804688 -0.332031 4.046875 -0.59375 C 4.285156 -0.863281 4.40625 -1.222656 4.40625 -1.671875 L 4.40625 -4.359375 C 4.394531 -4.484375 4.332031 -4.578125 4.21875 -4.640625 C 4.164062 -4.660156 4.109375 -4.671875 4.046875 -4.671875 L 3.9375 -4.671875 L 3.9375 -4.75 L 5.359375 -4.75 Z M 5.359375 -4.671875 "/></g></g></g><g fill="#000000" fill-opacity="1"><g transform="translate(78.392526, 9.435497)"><g><path d="M 6.421875 -0.0625 L 6.53125 -0.0625 L 6.53125 0 L 4.5 0 L 4.5 -0.0625 L 4.59375 -0.0625 C 4.675781 -0.0625 4.742188 -0.09375 4.796875 -0.15625 C 4.847656 -0.21875 4.867188 -0.285156 4.859375 -0.359375 L 4.59375 -2.8125 L 3.328125 -0.609375 C 3.160156 -0.335938 3.070312 -0.0859375 3.0625 0.140625 L 3 0.140625 L 1.25 -2.796875 L 0.984375 -0.359375 C 0.972656 -0.285156 0.992188 -0.21875 1.046875 -0.15625 C 1.109375 -0.09375 1.175781 -0.0625 1.25 -0.0625 L 1.359375 -0.0625 L 1.359375 0 L -0.0625 0 L -0.0625 -0.0625 L 0.046875 -0.0625 C 0.171875 -0.0625 0.28125 -0.0976562 0.375 -0.171875 C 0.46875 -0.253906 0.523438 -0.363281 0.546875 -0.5 L 1.109375 -4.84375 L 1.171875 -4.84375 L 3.265625 -1.390625 L 5.296875 -4.84375 L 5.34375 -4.84375 L 5.921875 -0.5 C 5.941406 -0.363281 6 -0.253906 6.09375 -0.171875 C 6.1875 -0.0976562 6.296875 -0.0625 6.421875 -0.0625 Z M 6.421875 -0.0625 "/></g></g></g><g fill="#000000" fill-opacity="1"><g transform="translate(52.967455, 18.467746)"><g><path d="M 0.40625 -0.28125 C 0.394531 -0.34375 0.390625 -0.460938 0.390625 -0.640625 C 0.390625 -0.828125 0.425781 -1.019531 0.5 -1.21875 L 0.5625 -1.21875 C 0.550781 -1.164062 0.546875 -1.117188 0.546875 -1.078125 C 0.546875 -0.796875 0.628906 -0.5625 0.796875 -0.375 C 0.960938 -0.195312 1.1875 -0.109375 1.46875 -0.109375 C 1.75 -0.109375 1.976562 -0.191406 2.15625 -0.359375 C 2.34375 -0.535156 2.4375 -0.753906 2.4375 -1.015625 C 2.4375 -1.273438 2.347656 -1.484375 2.171875 -1.640625 L 0.875 -2.859375 C 0.632812 -3.078125 0.515625 -3.347656 0.515625 -3.671875 C 0.515625 -3.992188 0.617188 -4.269531 0.828125 -4.5 C 1.046875 -4.726562 1.335938 -4.84375 1.703125 -4.84375 C 1.867188 -4.84375 2.0625 -4.820312 2.28125 -4.78125 L 2.546875 -4.78125 L 2.546875 -3.9375 L 2.484375 -3.9375 C 2.484375 -4.15625 2.410156 -4.328125 2.265625 -4.453125 C 2.117188 -4.578125 1.929688 -4.640625 1.703125 -4.640625 C 1.472656 -4.640625 1.28125 -4.5625 1.125 -4.40625 C 0.96875 -4.25 0.890625 -4.054688 0.890625 -3.828125 C 0.890625 -3.597656 0.976562 -3.398438 1.15625 -3.234375 L 2.5 -2 C 2.71875 -1.789062 2.828125 -1.503906 2.828125 -1.140625 C 2.828125 -0.785156 2.710938 -0.488281 2.484375 -0.25 C 2.253906 -0.0195312 1.945312 0.09375 1.5625 0.09375 C 1.363281 0.09375 1.148438 0.0625 0.921875 0 C 0.703125 -0.0625 0.53125 -0.15625 0.40625 -0.28125 Z M 0.40625 -0.28125 "/></g></g></g><g fill="#000000" fill-opacity="1"><g transform="translate(56.185218, 18.467746)"><g><path d="M 0.5 -0.0625 C 0.613281 -0.0625 0.710938 -0.101562 0.796875 -0.1875 C 0.878906 -0.269531 0.921875 -0.375 0.921875 -0.5 L 0.921875 -4.296875 C 0.910156 -4.398438 0.863281 -4.488281 0.78125 -4.5625 C 0.707031 -4.632812 0.613281 -4.671875 0.5 -4.671875 L 0.40625 -4.671875 L 0.40625 -4.75 L 2.390625 -4.75 C 2.535156 -4.75 2.6875 -4.757812 2.84375 -4.78125 C 3.007812 -4.8125 3.128906 -4.84375 3.203125 -4.875 L 3.203125 -4.015625 L 3.140625 -4.015625 L 3.140625 -4.140625 C 3.140625 -4.242188 3.097656 -4.332031 3.015625 -4.40625 C 2.941406 -4.488281 2.851562 -4.53125 2.75 -4.53125 L 1.375 -4.53125 L 1.375 -2.4375 L 2.515625 -2.4375 C 2.609375 -2.445312 2.6875 -2.484375 2.75 -2.546875 C 2.8125 -2.609375 2.84375 -2.6875 2.84375 -2.78125 L 2.84375 -2.875 L 2.90625 -2.875 L 2.90625 -1.796875 L 2.84375 -1.796875 L 2.84375 -1.90625 C 2.84375 -2 2.8125 -2.078125 2.75 -2.140625 C 2.6875 -2.203125 2.609375 -2.234375 2.515625 -2.234375 L 1.375 -2.234375 L 1.375 -0.203125 L 2.34375 -0.203125 C 2.675781 -0.203125 2.929688 -0.273438 3.109375 -0.421875 C 3.285156 -0.578125 3.429688 -0.800781 3.546875 -1.09375 L 3.609375 -1.09375 L 3.21875 0 L 0.40625 0 L 0.40625 -0.0625 Z M 0.5 -0.0625 "/></g></g></g><g fill="#000000" fill-opacity="1"><g transform="translate(60.026208, 18.467746)"><g><path d="M 5.28125 -4.671875 C 5.164062 -4.671875 5.066406 -4.628906 4.984375 -4.546875 C 4.898438 -4.472656 4.859375 -4.378906 4.859375 -4.265625 L 4.859375 -0.765625 C 4.859375 -0.503906 4.875 -0.257812 4.90625 -0.03125 L 4.921875 0.09375 L 4.859375 0.09375 L 1.15625 -3.859375 L 1.15625 -0.46875 C 1.164062 -0.3125 1.238281 -0.195312 1.375 -0.125 C 1.4375 -0.0820312 1.503906 -0.0625 1.578125 -0.0625 L 1.703125 -0.0625 L 1.703125 0 L 0.3125 0 L 0.3125 -0.0625 L 0.4375 -0.0625 C 0.550781 -0.0625 0.644531 -0.101562 0.71875 -0.1875 C 0.800781 -0.269531 0.84375 -0.367188 0.84375 -0.484375 L 0.84375 -4 C 0.84375 -4.28125 0.828125 -4.523438 0.796875 -4.734375 L 0.78125 -4.84375 L 0.859375 -4.84375 L 4.546875 -0.90625 L 4.546875 -4.265625 C 4.546875 -4.378906 4.503906 -4.472656 4.421875 -4.546875 C 4.335938 -4.628906 4.238281 -4.671875 4.125 -4.671875 L 4 -4.671875 L 4 -4.75 L 5.390625 -4.75 L 5.390625 -4.671875 Z M 5.28125 -4.671875 "/></g></g></g><g fill="#000000" fill-opacity="1"><g transform="translate(65.6556, 18.467746)"><g><path d="M 0.5 -0.0625 C 0.613281 -0.0625 0.710938 -0.101562 0.796875 -0.1875 C 0.878906 -0.269531 0.921875 -0.375 0.921875 -0.5 L 0.921875 -4.265625 C 0.921875 -4.378906 0.878906 -4.472656 0.796875 -4.546875 C 0.710938 -4.628906 0.613281 -4.671875 0.5 -4.671875 L 0.40625 -4.671875 L 0.40625 -4.75 L 1.890625 -4.75 L 1.890625 -4.671875 L 1.796875 -4.671875 C 1.679688 -4.671875 1.582031 -4.628906 1.5 -4.546875 C 1.414062 -4.472656 1.375 -4.378906 1.375 -4.265625 L 1.375 -0.5 C 1.375 -0.375 1.414062 -0.269531 1.5 -0.1875 C 1.582031 -0.101562 1.679688 -0.0625 1.796875 -0.0625 L 1.890625 -0.0625 L 1.890625 0 L 0.40625 0 L 0.40625 -0.0625 Z M 0.5 -0.0625 "/></g></g></g><g fill="#000000" fill-opacity="1"><g transform="translate(67.809806, 18.467746)"><g><path d="M 1.140625 -4.15625 C 1.597656 -4.613281 2.1875 -4.84375 2.90625 -4.84375 C 3.632812 -4.84375 4.222656 -4.613281 4.671875 -4.15625 C 5.117188 -3.707031 5.34375 -3.113281 5.34375 -2.375 C 5.34375 -1.632812 5.117188 -1.035156 4.671875 -0.578125 C 4.222656 -0.128906 3.632812 0.09375 2.90625 0.09375 C 2.1875 0.09375 1.597656 -0.128906 1.140625 -0.578125 C 0.691406 -1.035156 0.46875 -1.632812 0.46875 -2.375 C 0.46875 -3.113281 0.691406 -3.707031 1.140625 -4.15625 Z M 1.515625 -0.734375 C 1.867188 -0.316406 2.332031 -0.109375 2.90625 -0.109375 C 3.488281 -0.109375 3.953125 -0.316406 4.296875 -0.734375 C 4.648438 -1.148438 4.828125 -1.695312 4.828125 -2.375 C 4.828125 -2.820312 4.75 -3.21875 4.59375 -3.5625 C 4.4375 -3.90625 4.210938 -4.171875 3.921875 -4.359375 C 3.628906 -4.546875 3.289062 -4.640625 2.90625 -4.640625 C 2.332031 -4.640625 1.867188 -4.429688 1.515625 -4.015625 C 1.171875 -3.597656 1 -3.050781 1 -2.375 C 1 -1.695312 1.171875 -1.148438 1.515625 -0.734375 Z M 1.515625 -0.734375 "/></g></g></g><g fill="#000000" fill-opacity="1"><g transform="translate(73.351131, 18.467746)"><g><path d="M 1.796875 -4.53125 L 1.375 -4.53125 L 1.375 -0.5 C 1.375 -0.375 1.414062 -0.269531 1.5 -0.1875 C 1.582031 -0.101562 1.679688 -0.0625 1.796875 -0.0625 L 1.890625 -0.0625 L 1.890625 0 L 0.40625 0 L 0.40625 -0.0625 L 0.5 -0.0625 C 0.613281 -0.0625 0.710938 -0.101562 0.796875 -0.1875 C 0.878906 -0.269531 0.921875 -0.367188 0.921875 -0.484375 L 0.921875 -4.25 C 0.921875 -4.363281 0.878906 -4.460938 0.796875 -4.546875 C 0.710938 -4.628906 0.613281 -4.671875 0.5 -4.671875 L 0.40625 -4.671875 L 0.40625 -4.75 L 2.234375 -4.75 C 2.648438 -4.75 2.972656 -4.632812 3.203125 -4.40625 C 3.441406 -4.175781 3.5625 -3.878906 3.5625 -3.515625 C 3.5625 -3.148438 3.445312 -2.832031 3.21875 -2.5625 C 3 -2.300781 2.726562 -2.171875 2.40625 -2.171875 C 2.476562 -2.140625 2.554688 -2.078125 2.640625 -1.984375 C 2.734375 -1.890625 2.816406 -1.796875 2.890625 -1.703125 C 3.285156 -1.148438 3.539062 -0.804688 3.65625 -0.671875 C 3.769531 -0.546875 3.851562 -0.457031 3.90625 -0.40625 C 3.957031 -0.363281 4.007812 -0.316406 4.0625 -0.265625 C 4.125 -0.222656 4.1875 -0.1875 4.25 -0.15625 C 4.375 -0.09375 4.515625 -0.0625 4.671875 -0.0625 L 4.671875 0 L 4.296875 0 C 4.097656 0 3.914062 -0.03125 3.75 -0.09375 C 3.582031 -0.164062 3.457031 -0.238281 3.375 -0.3125 C 3.289062 -0.394531 3.21875 -0.46875 3.15625 -0.53125 C 3.09375 -0.601562 2.921875 -0.835938 2.640625 -1.234375 C 2.367188 -1.640625 2.210938 -1.867188 2.171875 -1.921875 C 2.128906 -1.972656 2.082031 -2.03125 2.03125 -2.09375 C 1.882812 -2.238281 1.738281 -2.3125 1.59375 -2.3125 L 1.59375 -2.390625 C 1.625 -2.378906 1.671875 -2.375 1.734375 -2.375 C 1.796875 -2.375 1.867188 -2.378906 1.953125 -2.390625 C 2.515625 -2.398438 2.867188 -2.632812 3.015625 -3.09375 C 3.035156 -3.1875 3.046875 -3.269531 3.046875 -3.34375 C 3.046875 -3.425781 3.046875 -3.476562 3.046875 -3.5 C 3.035156 -3.800781 2.957031 -4.046875 2.8125 -4.234375 C 2.664062 -4.421875 2.460938 -4.519531 2.203125 -4.53125 C 2.097656 -4.53125 1.960938 -4.53125 1.796875 -4.53125 Z M 1.796875 -4.53125 "/></g></g></g><g fill="#000000" fill-opacity="1"><g transform="translate(77.801799, 18.467746)"><g><path d="M 0.40625 -0.28125 C 0.394531 -0.34375 0.390625 -0.460938 0.390625 -0.640625 C 0.390625 -0.828125 0.425781 -1.019531 0.5 -1.21875 L 0.5625 -1.21875 C 0.550781 -1.164062 0.546875 -1.117188 0.546875 -1.078125 C 0.546875 -0.796875 0.628906 -0.5625 0.796875 -0.375 C 0.960938 -0.195312 1.1875 -0.109375 1.46875 -0.109375 C 1.75 -0.109375 1.976562 -0.191406 2.15625 -0.359375 C 2.34375 -0.535156 2.4375 -0.753906 2.4375 -1.015625 C 2.4375 -1.273438 2.347656 -1.484375 2.171875 -1.640625 L 0.875 -2.859375 C 0.632812 -3.078125 0.515625 -3.347656 0.515625 -3.671875 C 0.515625 -3.992188 0.617188 -4.269531 0.828125 -4.5 C 1.046875 -4.726562 1.335938 -4.84375 1.703125 -4.84375 C 1.867188 -4.84375 2.0625 -4.820312 2.28125 -4.78125 L 2.546875 -4.78125 L 2.546875 -3.9375 L 2.484375 -3.9375 C 2.484375 -4.15625 2.410156 -4.328125 2.265625 -4.453125 C 2.117188 -4.578125 1.929688 -4.640625 1.703125 -4.640625 C 1.472656 -4.640625 1.28125 -4.5625 1.125 -4.40625 C 0.96875 -4.25 0.890625 -4.054688 0.890625 -3.828125 C 0.890625 -3.597656 0.976562 -3.398438 1.15625 -3.234375 L 2.5 -2 C 2.71875 -1.789062 2.828125 -1.503906 2.828125 -1.140625 C 2.828125 -0.785156 2.710938 -0.488281 2.484375 -0.25 C 2.253906 -0.0195312 1.945312 0.09375 1.5625 0.09375 C 1.363281 0.09375 1.148438 0.0625 0.921875 0 C 0.703125 -0.0625 0.53125 -0.15625 0.40625 -0.28125 Z M 0.40625 -0.28125 "/></g></g></g><g fill="#000000" fill-opacity="1"><g transform="translate(51.082892, 25.451615)"><g><path d="M 0.609375 0.03125 C 0.503906 0.03125 0.414062 0.015625 0.34375 -0.015625 C 0.269531 -0.0546875 0.210938 -0.113281 0.171875 -0.1875 C 0.140625 -0.257812 0.125 -0.347656 0.125 -0.453125 C 0.125 -0.535156 0.140625 -0.609375 0.171875 -0.671875 C 0.210938 -0.734375 0.273438 -0.785156 0.359375 -0.828125 C 0.441406 -0.867188 0.550781 -0.898438 0.6875 -0.921875 C 0.78125 -0.941406 0.847656 -0.957031 0.890625 -0.96875 C 0.941406 -0.988281 0.976562 -1.007812 1 -1.03125 C 1.019531 -1.0625 1.03125 -1.09375 1.03125 -1.125 C 1.03125 -1.175781 1.007812 -1.210938 0.96875 -1.234375 C 0.9375 -1.265625 0.878906 -1.28125 0.796875 -1.28125 C 0.710938 -1.28125 0.628906 -1.257812 0.546875 -1.21875 C 0.472656 -1.175781 0.40625 -1.125 0.34375 -1.0625 L 0.3125 -1.0625 L 0.15625 -1.3125 C 0.238281 -1.40625 0.335938 -1.472656 0.453125 -1.515625 C 0.566406 -1.566406 0.6875 -1.59375 0.8125 -1.59375 C 1.019531 -1.59375 1.171875 -1.546875 1.265625 -1.453125 C 1.359375 -1.367188 1.40625 -1.25 1.40625 -1.09375 L 1.40625 -0.40625 C 1.40625 -0.332031 1.4375 -0.296875 1.5 -0.296875 C 1.519531 -0.296875 1.546875 -0.300781 1.578125 -0.3125 L 1.59375 -0.3125 L 1.625 -0.03125 C 1.601562 -0.0195312 1.570312 -0.0078125 1.53125 0 C 1.488281 0.0078125 1.445312 0.015625 1.40625 0.015625 C 1.3125 0.015625 1.238281 0 1.1875 -0.03125 C 1.132812 -0.0703125 1.09375 -0.132812 1.0625 -0.21875 L 1.03125 -0.21875 C 0.957031 -0.0507812 0.816406 0.03125 0.609375 0.03125 Z M 0.734375 -0.265625 C 0.828125 -0.265625 0.898438 -0.296875 0.953125 -0.359375 C 1.003906 -0.421875 1.03125 -0.503906 1.03125 -0.609375 L 1.03125 -0.765625 L 1 -0.78125 C 0.976562 -0.757812 0.945312 -0.738281 0.90625 -0.71875 C 0.875 -0.707031 0.820312 -0.695312 0.75 -0.6875 C 0.664062 -0.675781 0.601562 -0.648438 0.5625 -0.609375 C 0.53125 -0.578125 0.515625 -0.53125 0.515625 -0.46875 C 0.515625 -0.40625 0.53125 -0.351562 0.5625 -0.3125 C 0.601562 -0.28125 0.660156 -0.265625 0.734375 -0.265625 Z M 0.734375 -0.265625 "/></g></g><g transform="translate(52.73155, 25.451615)"><g/></g><g transform="translate(53.416246, 25.451615)"><g><path d="M 0.21875 0 L 0.21875 -1.5625 L 0.609375 -1.5625 L 0.609375 -1.328125 L 0.640625 -1.328125 C 0.734375 -1.503906 0.890625 -1.59375 1.109375 -1.59375 C 1.285156 -1.59375 1.414062 -1.539062 1.5 -1.4375 C 1.582031 -1.34375 1.625 -1.203125 1.625 -1.015625 L 1.625 0 L 1.234375 0 L 1.234375 -0.96875 C 1.234375 -1.070312 1.210938 -1.144531 1.171875 -1.1875 C 1.128906 -1.238281 1.0625 -1.265625 0.96875 -1.265625 C 0.863281 -1.265625 0.78125 -1.226562 0.71875 -1.15625 C 0.65625 -1.082031 0.625 -0.96875 0.625 -0.8125 L 0.625 0 Z M 0.21875 0 "/></g></g><g transform="translate(55.247774, 25.451615)"><g><path d="M 0.90625 0.03125 C 0.757812 0.03125 0.625 0 0.5 -0.0625 C 0.382812 -0.125 0.296875 -0.21875 0.234375 -0.34375 C 0.171875 -0.46875 0.140625 -0.613281 0.140625 -0.78125 C 0.140625 -0.957031 0.171875 -1.101562 0.234375 -1.21875 C 0.296875 -1.34375 0.382812 -1.4375 0.5 -1.5 C 0.625 -1.5625 0.757812 -1.59375 0.90625 -1.59375 C 1.0625 -1.59375 1.195312 -1.5625 1.3125 -1.5 C 1.425781 -1.4375 1.515625 -1.34375 1.578125 -1.21875 C 1.648438 -1.101562 1.6875 -0.957031 1.6875 -0.78125 C 1.6875 -0.613281 1.648438 -0.46875 1.578125 -0.34375 C 1.515625 -0.21875 1.425781 -0.125 1.3125 -0.0625 C 1.195312 0 1.0625 0.03125 0.90625 0.03125 Z M 0.90625 -0.296875 C 1.15625 -0.296875 1.28125 -0.457031 1.28125 -0.78125 C 1.28125 -0.945312 1.25 -1.066406 1.1875 -1.140625 C 1.125 -1.222656 1.03125 -1.265625 0.90625 -1.265625 C 0.664062 -1.265625 0.546875 -1.101562 0.546875 -0.78125 C 0.546875 -0.457031 0.664062 -0.296875 0.90625 -0.296875 Z M 0.90625 -0.296875 "/></g></g><g transform="translate(57.065125, 25.451615)"><g><path d="M 0.21875 0 L 0.21875 -1.5625 L 0.609375 -1.5625 L 0.609375 -1.328125 L 0.640625 -1.328125 C 0.734375 -1.503906 0.890625 -1.59375 1.109375 -1.59375 C 1.285156 -1.59375 1.414062 -1.539062 1.5 -1.4375 C 1.582031 -1.34375 1.625 -1.203125 1.625 -1.015625 L 1.625 0 L 1.234375 0 L 1.234375 -0.96875 C 1.234375 -1.070312 1.210938 -1.144531 1.171875 -1.1875 C 1.128906 -1.238281 1.0625 -1.265625 0.96875 -1.265625 C 0.863281 -1.265625 0.78125 -1.226562 0.71875 -1.15625 C 0.65625 -1.082031 0.625 -0.96875 0.625 -0.8125 L 0.625 0 Z M 0.21875 0 "/></g></g><g transform="translate(58.896653, 25.451615)"><g><path d="M 1 -0.828125 L 0.125 -0.828125 L 0.125 -1.1875 L 1 -1.1875 Z M 1 -0.828125 "/></g></g><g transform="translate(60.015132, 25.451615)"><g><path d="M 0.8125 0.671875 C 0.550781 0.671875 0.359375 0.628906 0.234375 0.546875 C 0.117188 0.472656 0.0625 0.367188 0.0625 0.234375 C 0.0625 0.148438 0.0859375 0.0820312 0.140625 0.03125 C 0.191406 -0.0195312 0.265625 -0.0546875 0.359375 -0.078125 L 0.359375 -0.109375 C 0.304688 -0.140625 0.269531 -0.171875 0.25 -0.203125 C 0.226562 -0.242188 0.21875 -0.289062 0.21875 -0.34375 C 0.21875 -0.46875 0.296875 -0.554688 0.453125 -0.609375 L 0.453125 -0.625 C 0.367188 -0.675781 0.304688 -0.738281 0.265625 -0.8125 C 0.222656 -0.882812 0.203125 -0.96875 0.203125 -1.0625 C 0.203125 -1.164062 0.222656 -1.257812 0.265625 -1.34375 C 0.316406 -1.425781 0.390625 -1.488281 0.484375 -1.53125 C 0.578125 -1.570312 0.6875 -1.59375 0.8125 -1.59375 C 0.945312 -1.59375 1.050781 -1.570312 1.125 -1.53125 C 1.175781 -1.59375 1.207031 -1.671875 1.21875 -1.765625 L 1.234375 -1.78125 L 1.53125 -1.71875 C 1.519531 -1.644531 1.492188 -1.582031 1.453125 -1.53125 C 1.421875 -1.476562 1.367188 -1.429688 1.296875 -1.390625 L 1.296875 -1.359375 C 1.378906 -1.285156 1.421875 -1.175781 1.421875 -1.03125 C 1.421875 -0.9375 1.394531 -0.851562 1.34375 -0.78125 C 1.300781 -0.707031 1.234375 -0.644531 1.140625 -0.59375 C 1.046875 -0.550781 0.9375 -0.53125 0.8125 -0.53125 L 0.75 -0.53125 C 0.71875 -0.53125 0.691406 -0.53125 0.671875 -0.53125 C 0.640625 -0.53125 0.613281 -0.519531 0.59375 -0.5 C 0.570312 -0.488281 0.5625 -0.46875 0.5625 -0.4375 C 0.5625 -0.394531 0.570312 -0.363281 0.59375 -0.34375 C 0.625 -0.332031 0.664062 -0.328125 0.71875 -0.328125 L 1.0625 -0.3125 C 1.414062 -0.300781 1.59375 -0.148438 1.59375 0.140625 C 1.59375 0.234375 1.566406 0.320312 1.515625 0.40625 C 1.460938 0.488281 1.378906 0.550781 1.265625 0.59375 C 1.148438 0.644531 1 0.671875 0.8125 0.671875 Z M 0.8125 -0.8125 C 0.882812 -0.8125 0.941406 -0.832031 0.984375 -0.875 C 1.035156 -0.914062 1.0625 -0.976562 1.0625 -1.0625 C 1.0625 -1.144531 1.035156 -1.207031 0.984375 -1.25 C 0.941406 -1.289062 0.882812 -1.3125 0.8125 -1.3125 C 0.738281 -1.3125 0.679688 -1.289062 0.640625 -1.25 C 0.597656 -1.207031 0.578125 -1.144531 0.578125 -1.0625 C 0.578125 -0.976562 0.597656 -0.914062 0.640625 -0.875 C 0.679688 -0.832031 0.738281 -0.8125 0.8125 -0.8125 Z M 0.8125 0.375 C 0.945312 0.375 1.046875 0.351562 1.109375 0.3125 C 1.171875 0.28125 1.203125 0.234375 1.203125 0.171875 C 1.203125 0.117188 1.1875 0.0820312 1.15625 0.0625 C 1.125 0.0390625 1.070312 0.03125 1 0.03125 L 0.6875 0.015625 C 0.675781 0.015625 0.664062 0.015625 0.65625 0.015625 C 0.65625 0.015625 0.648438 0.015625 0.640625 0.015625 C 0.566406 0.015625 0.515625 0.0234375 0.484375 0.046875 C 0.453125 0.078125 0.4375 0.117188 0.4375 0.171875 C 0.4375 0.234375 0.46875 0.28125 0.53125 0.3125 C 0.59375 0.351562 0.6875 0.375 0.8125 0.375 Z M 0.8125 0.375 "/></g></g></g><g fill="#000000" fill-opacity="1"><g transform="translate(61.617009, 25.451615)"><g><path d="M 0.90625 0.03125 C 0.757812 0.03125 0.625 0 0.5 -0.0625 C 0.382812 -0.125 0.296875 -0.21875 0.234375 -0.34375 C 0.171875 -0.46875 0.140625 -0.613281 0.140625 -0.78125 C 0.140625 -0.957031 0.171875 -1.101562 0.234375 -1.21875 C 0.296875 -1.34375 0.382812 -1.4375 0.5 -1.5 C 0.625 -1.5625 0.757812 -1.59375 0.90625 -1.59375 C 1.0625 -1.59375 1.195312 -1.5625 1.3125 -1.5 C 1.425781 -1.4375 1.515625 -1.34375 1.578125 -1.21875 C 1.648438 -1.101562 1.6875 -0.957031 1.6875 -0.78125 C 1.6875 -0.613281 1.648438 -0.46875 1.578125 -0.34375 C 1.515625 -0.21875 1.425781 -0.125 1.3125 -0.0625 C 1.195312 0 1.0625 0.03125 0.90625 0.03125 Z M 0.90625 -0.296875 C 1.15625 -0.296875 1.28125 -0.457031 1.28125 -0.78125 C 1.28125 -0.945312 1.25 -1.066406 1.1875 -1.140625 C 1.125 -1.222656 1.03125 -1.265625 0.90625 -1.265625 C 0.664062 -1.265625 0.546875 -1.101562 0.546875 -0.78125 C 0.546875 -0.457031 0.664062 -0.296875 0.90625 -0.296875 Z M 0.90625 -0.296875 "/></g></g></g><g fill="#000000" fill-opacity="1"><g transform="translate(63.404591, 25.451615)"><g><path d="M 1.078125 0 L 0.609375 0 L 0.03125 -1.5625 L 0.4375 -1.5625 L 0.828125 -0.453125 L 0.859375 -0.453125 L 1.25 -1.5625 L 1.65625 -1.5625 Z M 1.078125 0 "/></g></g></g><g fill="#000000" fill-opacity="1"><g transform="translate(65.056085, 25.451615)"><g><path d="M 1.546875 -0.6875 L 0.546875 -0.6875 C 0.554688 -0.550781 0.59375 -0.453125 0.65625 -0.390625 C 0.71875 -0.328125 0.804688 -0.296875 0.921875 -0.296875 C 1.015625 -0.296875 1.085938 -0.3125 1.140625 -0.34375 C 1.203125 -0.382812 1.25 -0.4375 1.28125 -0.5 L 1.3125 -0.5 L 1.578125 -0.34375 C 1.523438 -0.226562 1.445312 -0.132812 1.34375 -0.0625 C 1.238281 0 1.097656 0.03125 0.921875 0.03125 C 0.765625 0.03125 0.625 0 0.5 -0.0625 C 0.382812 -0.125 0.296875 -0.210938 0.234375 -0.328125 C 0.171875 -0.453125 0.140625 -0.601562 0.140625 -0.78125 C 0.140625 -0.957031 0.171875 -1.109375 0.234375 -1.234375 C 0.304688 -1.359375 0.398438 -1.445312 0.515625 -1.5 C 0.628906 -1.5625 0.757812 -1.59375 0.90625 -1.59375 C 1.125 -1.59375 1.289062 -1.535156 1.40625 -1.421875 C 1.519531 -1.304688 1.578125 -1.132812 1.578125 -0.90625 C 1.578125 -0.820312 1.578125 -0.757812 1.578125 -0.71875 Z M 1.203125 -0.953125 C 1.203125 -1.066406 1.175781 -1.148438 1.125 -1.203125 C 1.070312 -1.265625 1 -1.296875 0.90625 -1.296875 C 0.707031 -1.296875 0.585938 -1.179688 0.546875 -0.953125 Z M 1.203125 -0.953125 "/></g></g><g transform="translate(66.755776, 25.451615)"><g><path d="M 0.21875 0 L 0.21875 -1.5625 L 0.609375 -1.5625 L 0.609375 -1.328125 L 0.640625 -1.328125 C 0.671875 -1.410156 0.71875 -1.472656 0.78125 -1.515625 C 0.84375 -1.554688 0.921875 -1.578125 1.015625 -1.578125 C 1.097656 -1.578125 1.164062 -1.5625 1.21875 -1.53125 L 1.140625 -1.1875 L 1.109375 -1.1875 C 1.085938 -1.195312 1.0625 -1.203125 1.03125 -1.203125 C 1.007812 -1.210938 0.984375 -1.21875 0.953125 -1.21875 C 0.847656 -1.21875 0.765625 -1.175781 0.703125 -1.09375 C 0.648438 -1.019531 0.625 -0.898438 0.625 -0.734375 L 0.625 0 Z M 0.21875 0 "/></g></g><g transform="translate(67.981992, 25.451615)"><g><path d="M 0.21875 0 L 0.21875 -1.5625 L 0.609375 -1.5625 L 0.609375 -1.328125 L 0.640625 -1.328125 C 0.734375 -1.503906 0.890625 -1.59375 1.109375 -1.59375 C 1.285156 -1.59375 1.414062 -1.539062 1.5 -1.4375 C 1.582031 -1.34375 1.625 -1.203125 1.625 -1.015625 L 1.625 0 L 1.234375 0 L 1.234375 -0.96875 C 1.234375 -1.070312 1.210938 -1.144531 1.171875 -1.1875 C 1.128906 -1.238281 1.0625 -1.265625 0.96875 -1.265625 C 0.863281 -1.265625 0.78125 -1.226562 0.71875 -1.15625 C 0.65625 -1.082031 0.625 -0.96875 0.625 -0.8125 L 0.625 0 Z M 0.21875 0 "/></g></g><g transform="translate(69.81352, 25.451615)"><g><path d="M 0.21875 0 L 0.21875 -1.5625 L 0.609375 -1.5625 L 0.609375 -1.359375 L 0.640625 -1.34375 C 0.679688 -1.425781 0.738281 -1.488281 0.8125 -1.53125 C 0.882812 -1.570312 0.972656 -1.59375 1.078125 -1.59375 C 1.191406 -1.59375 1.285156 -1.566406 1.359375 -1.515625 C 1.429688 -1.472656 1.484375 -1.40625 1.515625 -1.3125 L 1.546875 -1.3125 C 1.597656 -1.40625 1.660156 -1.472656 1.734375 -1.515625 C 1.804688 -1.566406 1.898438 -1.59375 2.015625 -1.59375 C 2.335938 -1.59375 2.5 -1.410156 2.5 -1.046875 L 2.5 0 L 2.109375 0 L 2.109375 -1 C 2.109375 -1.09375 2.085938 -1.160156 2.046875 -1.203125 C 2.015625 -1.242188 1.960938 -1.265625 1.890625 -1.265625 C 1.671875 -1.265625 1.5625 -1.117188 1.5625 -0.828125 L 1.5625 0 L 1.171875 0 L 1.171875 -1 C 1.171875 -1.09375 1.148438 -1.160156 1.109375 -1.203125 C 1.078125 -1.242188 1.019531 -1.265625 0.9375 -1.265625 C 0.832031 -1.265625 0.753906 -1.226562 0.703125 -1.15625 C 0.648438 -1.09375 0.625 -0.988281 0.625 -0.84375 L 0.625 0 Z M 0.21875 0 "/></g></g><g transform="translate(72.518283, 25.451615)"><g><path d="M 1.546875 -0.6875 L 0.546875 -0.6875 C 0.554688 -0.550781 0.59375 -0.453125 0.65625 -0.390625 C 0.71875 -0.328125 0.804688 -0.296875 0.921875 -0.296875 C 1.015625 -0.296875 1.085938 -0.3125 1.140625 -0.34375 C 1.203125 -0.382812 1.25 -0.4375 1.28125 -0.5 L 1.3125 -0.5 L 1.578125 -0.34375 C 1.523438 -0.226562 1.445312 -0.132812 1.34375 -0.0625 C 1.238281 0 1.097656 0.03125 0.921875 0.03125 C 0.765625 0.03125 0.625 0 0.5 -0.0625 C 0.382812 -0.125 0.296875 -0.210938 0.234375 -0.328125 C 0.171875 -0.453125 0.140625 -0.601562 0.140625 -0.78125 C 0.140625 -0.957031 0.171875 -1.109375 0.234375 -1.234375 C 0.304688 -1.359375 0.398438 -1.445312 0.515625 -1.5 C 0.628906 -1.5625 0.757812 -1.59375 0.90625 -1.59375 C 1.125 -1.59375 1.289062 -1.535156 1.40625 -1.421875 C 1.519531 -1.304688 1.578125 -1.132812 1.578125 -0.90625 C 1.578125 -0.820312 1.578125 -0.757812 1.578125 -0.71875 Z M 1.203125 -0.953125 C 1.203125 -1.066406 1.175781 -1.148438 1.125 -1.203125 C 1.070312 -1.265625 1 -1.296875 0.90625 -1.296875 C 0.707031 -1.296875 0.585938 -1.179688 0.546875 -0.953125 Z M 1.203125 -0.953125 "/></g></g><g transform="translate(74.217974, 25.451615)"><g><path d="M 0.21875 0 L 0.21875 -1.5625 L 0.609375 -1.5625 L 0.609375 -1.328125 L 0.640625 -1.328125 C 0.734375 -1.503906 0.890625 -1.59375 1.109375 -1.59375 C 1.285156 -1.59375 1.414062 -1.539062 1.5 -1.4375 C 1.582031 -1.34375 1.625 -1.203125 1.625 -1.015625 L 1.625 0 L 1.234375 0 L 1.234375 -0.96875 C 1.234375 -1.070312 1.210938 -1.144531 1.171875 -1.1875 C 1.128906 -1.238281 1.0625 -1.265625 0.96875 -1.265625 C 0.863281 -1.265625 0.78125 -1.226562 0.71875 -1.15625 C 0.65625 -1.082031 0.625 -0.96875 0.625 -0.8125 L 0.625 0 Z M 0.21875 0 "/></g></g></g><g fill="#000000" fill-opacity="1"><g transform="translate(76.038161, 25.451615)"><g><path d="M 1.078125 -0.375 L 1.1875 -0.078125 C 1.144531 -0.046875 1.085938 -0.0195312 1.015625 0 C 0.953125 0.0195312 0.878906 0.03125 0.796875 0.03125 C 0.628906 0.03125 0.5 -0.015625 0.40625 -0.109375 C 0.320312 -0.203125 0.28125 -0.335938 0.28125 -0.515625 L 0.28125 -1.25 L 0.046875 -1.25 L 0.046875 -1.5625 L 0.28125 -1.5625 L 0.28125 -1.875 L 0.671875 -1.9375 L 0.671875 -1.5625 L 1.125 -1.5625 L 1.125 -1.25 L 0.671875 -1.25 L 0.671875 -0.546875 C 0.671875 -0.460938 0.6875 -0.398438 0.71875 -0.359375 C 0.757812 -0.328125 0.804688 -0.3125 0.859375 -0.3125 C 0.929688 -0.3125 0.992188 -0.332031 1.046875 -0.375 Z M 1.078125 -0.375 "/></g></g><g transform="translate(77.253036, 25.451615)"><g/></g><g transform="translate(77.937733, 25.451615)"><g><path d="M 1.546875 -0.6875 L 0.546875 -0.6875 C 0.554688 -0.550781 0.59375 -0.453125 0.65625 -0.390625 C 0.71875 -0.328125 0.804688 -0.296875 0.921875 -0.296875 C 1.015625 -0.296875 1.085938 -0.3125 1.140625 -0.34375 C 1.203125 -0.382812 1.25 -0.4375 1.28125 -0.5 L 1.3125 -0.5 L 1.578125 -0.34375 C 1.523438 -0.226562 1.445312 -0.132812 1.34375 -0.0625 C 1.238281 0 1.097656 0.03125 0.921875 0.03125 C 0.765625 0.03125 0.625 0 0.5 -0.0625 C 0.382812 -0.125 0.296875 -0.210938 0.234375 -0.328125 C 0.171875 -0.453125 0.140625 -0.601562 0.140625 -0.78125 C 0.140625 -0.957031 0.171875 -1.109375 0.234375 -1.234375 C 0.304688 -1.359375 0.398438 -1.445312 0.515625 -1.5 C 0.628906 -1.5625 0.757812 -1.59375 0.90625 -1.59375 C 1.125 -1.59375 1.289062 -1.535156 1.40625 -1.421875 C 1.519531 -1.304688 1.578125 -1.132812 1.578125 -0.90625 C 1.578125 -0.820312 1.578125 -0.757812 1.578125 -0.71875 Z M 1.203125 -0.953125 C 1.203125 -1.066406 1.175781 -1.148438 1.125 -1.203125 C 1.070312 -1.265625 1 -1.296875 0.90625 -1.296875 C 0.707031 -1.296875 0.585938 -1.179688 0.546875 -0.953125 Z M 1.203125 -0.953125 "/></g></g><g transform="translate(79.637424, 25.451615)"><g><path d="M 0.21875 0 L 0.21875 -1.5625 L 0.609375 -1.5625 L 0.609375 -1.328125 L 0.640625 -1.328125 C 0.734375 -1.503906 0.890625 -1.59375 1.109375 -1.59375 C 1.285156 -1.59375 1.414062 -1.539062 1.5 -1.4375 C 1.582031 -1.34375 1.625 -1.203125 1.625 -1.015625 L 1.625 0 L 1.234375 0 L 1.234375 -0.96875 C 1.234375 -1.070312 1.210938 -1.144531 1.171875 -1.1875 C 1.128906 -1.238281 1.0625 -1.265625 0.96875 -1.265625 C 0.863281 -1.265625 0.78125 -1.226562 0.71875 -1.15625 C 0.65625 -1.082031 0.625 -0.96875 0.625 -0.8125 L 0.625 0 Z M 0.21875 0 "/></g></g></g><g fill="#000000" fill-opacity="1"><g transform="translate(81.457611, 25.451615)"><g><path d="M 1.078125 -0.375 L 1.1875 -0.078125 C 1.144531 -0.046875 1.085938 -0.0195312 1.015625 0 C 0.953125 0.0195312 0.878906 0.03125 0.796875 0.03125 C 0.628906 0.03125 0.5 -0.015625 0.40625 -0.109375 C 0.320312 -0.203125 0.28125 -0.335938 0.28125 -0.515625 L 0.28125 -1.25 L 0.046875 -1.25 L 0.046875 -1.5625 L 0.28125 -1.5625 L 0.28125 -1.875 L 0.671875 -1.9375 L 0.671875 -1.5625 L 1.125 -1.5625 L 1.125 -1.25 L 0.671875 -1.25 L 0.671875 -0.546875 C 0.671875 -0.460938 0.6875 -0.398438 0.71875 -0.359375 C 0.757812 -0.328125 0.804688 -0.3125 0.859375 -0.3125 C 0.929688 -0.3125 0.992188 -0.332031 1.046875 -0.375 Z M 1.078125 -0.375 "/></g></g><g transform="translate(82.672486, 25.451615)"><g><path d="M 0.421875 -1.75 C 0.347656 -1.75 0.289062 -1.769531 0.25 -1.8125 C 0.207031 -1.851562 0.1875 -1.910156 0.1875 -1.984375 C 0.1875 -2.046875 0.207031 -2.097656 0.25 -2.140625 C 0.289062 -2.191406 0.347656 -2.21875 0.421875 -2.21875 C 0.472656 -2.21875 0.515625 -2.207031 0.546875 -2.1875 C 0.585938 -2.164062 0.617188 -2.132812 0.640625 -2.09375 C 0.660156 -2.0625 0.671875 -2.023438 0.671875 -1.984375 C 0.671875 -1.941406 0.660156 -1.898438 0.640625 -1.859375 C 0.617188 -1.828125 0.585938 -1.800781 0.546875 -1.78125 C 0.515625 -1.757812 0.472656 -1.75 0.421875 -1.75 Z M 0.21875 0 L 0.21875 -1.5625 L 0.625 -1.5625 L 0.625 0 Z M 0.21875 0 "/></g></g><g transform="translate(83.514535, 25.451615)"><g><path d="M 1.078125 -0.375 L 1.1875 -0.078125 C 1.144531 -0.046875 1.085938 -0.0195312 1.015625 0 C 0.953125 0.0195312 0.878906 0.03125 0.796875 0.03125 C 0.628906 0.03125 0.5 -0.015625 0.40625 -0.109375 C 0.320312 -0.203125 0.28125 -0.335938 0.28125 -0.515625 L 0.28125 -1.25 L 0.046875 -1.25 L 0.046875 -1.5625 L 0.28125 -1.5625 L 0.28125 -1.875 L 0.671875 -1.9375 L 0.671875 -1.5625 L 1.125 -1.5625 L 1.125 -1.25 L 0.671875 -1.25 L 0.671875 -0.546875 C 0.671875 -0.460938 0.6875 -0.398438 0.71875 -0.359375 C 0.757812 -0.328125 0.804688 -0.3125 0.859375 -0.3125 C 0.929688 -0.3125 0.992188 -0.332031 1.046875 -0.375 Z M 1.078125 -0.375 "/></g></g><g transform="translate(84.72941, 25.451615)"><g><path d="M 0.34375 0.671875 C 0.28125 0.671875 0.21875 0.664062 0.15625 0.65625 C 0.101562 0.644531 0.0625 0.628906 0.03125 0.609375 L 0.09375 0.296875 L 0.125 0.28125 C 0.144531 0.289062 0.171875 0.300781 0.203125 0.3125 C 0.242188 0.320312 0.28125 0.328125 0.3125 0.328125 C 0.375 0.328125 0.425781 0.316406 0.46875 0.296875 C 0.507812 0.273438 0.546875 0.242188 0.578125 0.203125 C 0.609375 0.171875 0.632812 0.125 0.65625 0.0625 L 0.03125 -1.5625 L 0.453125 -1.5625 L 0.828125 -0.484375 L 0.875 -0.484375 L 1.25 -1.5625 L 1.640625 -1.5625 L 1.015625 0.09375 C 0.960938 0.226562 0.90625 0.335938 0.84375 0.421875 C 0.789062 0.503906 0.722656 0.566406 0.640625 0.609375 C 0.554688 0.648438 0.457031 0.671875 0.34375 0.671875 Z M 0.34375 0.671875 "/></g></g></g></svg>