<svg xmlns="http://www.w3.org/2000/svg" xmlns:xlink="http://www.w3.org/1999/xlink" width="132" zoomAndPan="magnify" viewBox="0 0 98.88 30.000001" height="40" preserveAspectRatio="xMidYMid meet" version="1.0"><defs><g/><clipPath id="149aee13fb"><path d="M 1.535156 0 L 97.226562 0 L 97.226562 29.03125 L 1.535156 29.03125 Z M 1.535156 0 " clip-rule="nonzero"/></clipPath><clipPath id="afed49df9b"><path d="M 7.074219 1.25 L 28.847656 1.25 L 28.847656 27.378906 L 7.074219 27.378906 Z M 7.074219 1.25 " clip-rule="nonzero"/></clipPath><clipPath id="38fc3b6292"><rect x="0" width="55" y="0" height="17"/></clipPath><clipPath id="f05bded3d2"><path d="M 0.363281 1 L 12 1 L 12 4.476562 L 0.363281 4.476562 Z M 0.363281 1 " clip-rule="nonzero"/></clipPath><clipPath id="3122a8a5f7"><path d="M 30 1 L 36 1 L 36 4.476562 L 30 4.476562 Z M 30 1 " clip-rule="nonzero"/></clipPath><clipPath id="e6b5664ef5"><rect x="0" width="37" y="0" height="5"/></clipPath></defs><g clip-path="url(#149aee13fb)"><path fill="#ffffff" d="M 1.535156 0 L 97.34375 0 L 97.34375 29.03125 L 1.535156 29.03125 Z M 1.535156 0 " fill-opacity="1" fill-rule="nonzero"/><path fill="#ffffff" d="M 1.535156 0 L 97.34375 0 L 97.34375 29.03125 L 1.535156 29.03125 Z M 1.535156 0 " fill-opacity="1" fill-rule="nonzero"/></g><g clip-path="url(#afed49df9b)"><path fill="#737373" d="M 17.933594 27.121094 C 17.886719 27.121094 17.84375 27.105469 17.796875 27.089844 C 17.386719 26.921875 7.738281 23.164062 7.085938 16.300781 C 7.085938 16.285156 7.085938 16.269531 7.085938 16.253906 L 7.085938 6.164062 C 7.085938 6.042969 7.085938 5.953125 7.085938 5.878906 C 7.070312 5.664062 7.054688 5.484375 7.207031 5.316406 C 7.359375 5.164062 7.539062 5.164062 7.722656 5.148438 C 7.796875 5.148438 7.902344 5.148438 8.039062 5.132812 C 9.601562 4.96875 13.675781 4.269531 17.707031 1.332031 C 17.84375 1.226562 18.039062 1.226562 18.175781 1.332031 C 22.191406 4.269531 26.265625 4.96875 27.84375 5.132812 C 27.980469 5.148438 28.085938 5.148438 28.160156 5.148438 C 28.34375 5.164062 28.523438 5.164062 28.660156 5.316406 C 28.8125 5.484375 28.8125 5.664062 28.796875 5.878906 C 28.796875 5.953125 28.796875 6.042969 28.796875 6.164062 L 28.796875 16.253906 C 28.796875 16.269531 28.796875 16.285156 28.796875 16.300781 C 28.144531 23.164062 18.496094 26.921875 18.085938 27.089844 C 18.039062 27.105469 17.996094 27.121094 17.933594 27.121094 Z M 7.886719 16.242188 C 8.464844 22.164062 16.738281 25.769531 17.933594 26.269531 C 19.144531 25.769531 27.402344 22.164062 27.980469 16.242188 L 27.980469 6.164062 C 27.980469 6.089844 27.980469 6.011719 27.996094 5.953125 C 27.917969 5.953125 27.84375 5.953125 27.75 5.9375 C 26.160156 5.769531 22.039062 5.074219 17.933594 2.164062 C 13.84375 5.074219 9.722656 5.769531 8.117188 5.9375 C 8.039062 5.953125 7.964844 5.953125 7.886719 5.953125 C 7.886719 6.011719 7.886719 6.089844 7.886719 6.164062 Z M 7.886719 16.242188 " fill-opacity="1" fill-rule="evenodd"/></g><path fill="#5e17eb" d="M 17.933594 21.816406 C 13.722656 21.816406 10.296875 18.390625 10.296875 14.179688 C 10.296875 9.96875 13.722656 6.542969 17.933594 6.542969 C 22.144531 6.542969 25.570312 9.96875 25.570312 14.179688 C 25.570312 18.390625 22.144531 21.816406 17.933594 21.816406 Z M 17.933594 7.363281 C 14.175781 7.363281 11.117188 10.421875 11.117188 14.179688 C 11.117188 17.953125 14.175781 21.011719 17.933594 21.011719 C 21.707031 21.011719 24.765625 17.953125 24.765625 14.179688 C 24.765625 10.421875 21.707031 7.363281 17.933594 7.363281 Z M 17.933594 7.363281 " fill-opacity="1" fill-rule="evenodd"/><path fill="#737373" d="M 16.796875 16.710938 C 16.691406 16.710938 16.585938 16.664062 16.507812 16.589844 L 14.554688 14.632812 C 14.386719 14.46875 14.386719 14.226562 14.554688 14.058594 C 14.707031 13.90625 14.964844 13.90625 15.117188 14.058594 L 16.796875 15.742188 L 20.75 11.769531 C 20.917969 11.621094 21.175781 11.621094 21.328125 11.769531 C 21.496094 11.9375 21.496094 12.195312 21.328125 12.347656 L 17.085938 16.589844 C 17.007812 16.664062 16.902344 16.710938 16.796875 16.710938 Z M 16.796875 16.710938 " fill-opacity="1" fill-rule="evenodd"/><path fill="#5e17eb" d="M 17.933594 19.953125 C 14.75 19.953125 12.175781 17.363281 12.175781 14.179688 C 12.175781 11 14.75 8.421875 17.933594 8.421875 C 21.117188 8.421875 23.707031 11 23.707031 14.179688 C 23.707031 17.363281 21.117188 19.953125 17.933594 19.953125 Z M 17.933594 9.226562 C 15.207031 9.226562 12.980469 11.453125 12.980469 14.179688 C 12.980469 16.921875 15.207031 19.148438 17.933594 19.148438 C 20.675781 19.148438 22.902344 16.921875 22.902344 14.179688 C 22.902344 11.453125 20.675781 9.226562 17.933594 9.226562 Z M 17.933594 9.226562 " fill-opacity="1" fill-rule="evenodd"/><g transform="matrix(1, 0, 0, 1, 37, 3)"><g clip-path="url(#38fc3b6292)"><g fill="#000000" fill-opacity="1"><g transform="translate(1.014404, 5.762342)"><g><path d="M 2.4375 -3.921875 L 2.4375 -0.421875 C 2.4375 -0.328125 2.472656 -0.242188 2.546875 -0.171875 C 2.617188 -0.0976562 2.707031 -0.0625 2.8125 -0.0625 L 2.890625 -0.0625 L 2.890625 0 L 1.078125 0 L 1.078125 -0.0625 L 1.15625 -0.0625 C 1.257812 -0.0625 1.347656 -0.0976562 1.421875 -0.171875 C 1.492188 -0.242188 1.535156 -0.328125 1.546875 -0.421875 L 1.546875 -3.921875 L 0.734375 -3.921875 C 0.554688 -3.921875 0.410156 -3.863281 0.296875 -3.75 C 0.191406 -3.632812 0.140625 -3.488281 0.140625 -3.3125 L 0.140625 -3.25 L 0.078125 -3.25 L 0.078125 -4.28125 C 0.242188 -4.207031 0.476562 -4.171875 0.78125 -4.171875 L 3.1875 -4.171875 C 3.3125 -4.171875 3.441406 -4.179688 3.578125 -4.203125 C 3.722656 -4.234375 3.828125 -4.257812 3.890625 -4.28125 L 3.890625 -3.25 L 3.828125 -3.25 L 3.828125 -3.3125 C 3.828125 -3.5625 3.734375 -3.738281 3.546875 -3.84375 C 3.460938 -3.894531 3.359375 -3.921875 3.234375 -3.921875 Z M 2.4375 -3.921875 "/></g></g></g><g fill="#000000" fill-opacity="1"><g transform="translate(4.977073, 5.762342)"><g><path d="M 3.15625 -0.0625 C 3.25 -0.0625 3.328125 -0.0859375 3.390625 -0.140625 C 3.484375 -0.234375 3.53125 -0.328125 3.53125 -0.421875 L 3.53125 -1.953125 L 1.59375 -1.953125 L 1.59375 -0.4375 C 1.59375 -0.332031 1.628906 -0.242188 1.703125 -0.171875 C 1.785156 -0.0976562 1.878906 -0.0625 1.984375 -0.0625 L 2.046875 -0.0625 L 2.0625 0 L 0.25 0 L 0.25 -0.0625 L 0.328125 -0.0625 C 0.429688 -0.0625 0.519531 -0.0976562 0.59375 -0.171875 C 0.664062 -0.242188 0.703125 -0.332031 0.703125 -0.4375 L 0.703125 -3.734375 C 0.703125 -3.835938 0.664062 -3.925781 0.59375 -4 C 0.519531 -4.070312 0.429688 -4.109375 0.328125 -4.109375 L 0.25 -4.109375 L 0.25 -4.171875 L 2.0625 -4.171875 L 2.046875 -4.109375 L 1.984375 -4.109375 C 1.878906 -4.109375 1.785156 -4.070312 1.703125 -4 C 1.628906 -3.925781 1.59375 -3.835938 1.59375 -3.734375 L 1.59375 -2.203125 L 3.53125 -2.203125 L 3.53125 -3.734375 C 3.53125 -3.835938 3.488281 -3.925781 3.40625 -4 C 3.332031 -4.070312 3.25 -4.109375 3.15625 -4.109375 L 3.078125 -4.109375 L 3.078125 -4.171875 L 4.875 -4.171875 L 4.875 -4.109375 L 4.796875 -4.109375 C 4.703125 -4.109375 4.613281 -4.070312 4.53125 -4 C 4.457031 -3.925781 4.421875 -3.835938 4.421875 -3.734375 L 4.421875 -0.4375 C 4.421875 -0.332031 4.457031 -0.242188 4.53125 -0.171875 C 4.613281 -0.0976562 4.703125 -0.0625 4.796875 -0.0625 L 4.875 -0.0625 L 4.875 0 L 3.078125 0 L 3.078125 -0.0625 Z M 3.15625 -0.0625 "/></g></g></g><g fill="#000000" fill-opacity="1"><g transform="translate(10.099988, 5.762342)"><g><path d="M 0.328125 -0.0625 C 0.429688 -0.0625 0.519531 -0.0976562 0.59375 -0.171875 C 0.664062 -0.242188 0.703125 -0.332031 0.703125 -0.4375 L 0.703125 -3.75 C 0.703125 -3.851562 0.675781 -3.929688 0.625 -3.984375 C 0.519531 -4.066406 0.421875 -4.109375 0.328125 -4.109375 L 0.25 -4.109375 L 0.25 -4.171875 L 2.53125 -4.171875 C 2.726562 -4.171875 2.890625 -4.179688 3.015625 -4.203125 C 3.140625 -4.234375 3.21875 -4.257812 3.25 -4.28125 L 3.25 -3.234375 L 3.1875 -3.234375 L 3.1875 -3.296875 C 3.1875 -3.546875 3.09375 -3.722656 2.90625 -3.828125 C 2.820312 -3.878906 2.71875 -3.90625 2.59375 -3.90625 L 1.59375 -3.90625 L 1.59375 -2.171875 L 2.390625 -2.171875 C 2.535156 -2.179688 2.65625 -2.234375 2.75 -2.328125 C 2.84375 -2.421875 2.890625 -2.539062 2.890625 -2.6875 L 2.890625 -2.75 L 2.953125 -2.75 L 2.953125 -1.375 L 2.890625 -1.375 L 2.890625 -1.421875 C 2.890625 -1.566406 2.84375 -1.6875 2.75 -1.78125 C 2.65625 -1.875 2.539062 -1.921875 2.40625 -1.921875 L 1.59375 -1.921875 L 1.59375 -0.25 L 2.375 -0.25 C 2.664062 -0.25 2.910156 -0.332031 3.109375 -0.5 C 3.304688 -0.664062 3.453125 -0.90625 3.546875 -1.21875 L 3.609375 -1.21875 L 3.328125 0 L 0.25 0 L 0.25 -0.0625 Z M 0.328125 -0.0625 "/></g></g></g><g fill="#000000" fill-opacity="1"><g transform="translate(13.854411, 5.762342)"><g/></g></g><g fill="#000000" fill-opacity="1"><g transform="translate(15.341898, 5.762342)"><g><path d="M 0.328125 -0.0625 C 0.429688 -0.0625 0.519531 -0.0976562 0.59375 -0.171875 C 0.664062 -0.242188 0.703125 -0.332031 0.703125 -0.4375 L 0.703125 -3.734375 C 0.703125 -3.835938 0.664062 -3.925781 0.59375 -4 C 0.519531 -4.070312 0.429688 -4.109375 0.328125 -4.109375 L 0.25 -4.109375 L 0.25 -4.171875 L 2.0625 -4.171875 L 2.046875 -4.109375 L 1.984375 -4.109375 C 1.878906 -4.109375 1.785156 -4.070312 1.703125 -4 C 1.628906 -3.925781 1.59375 -3.835938 1.59375 -3.734375 L 1.59375 -0.4375 C 1.59375 -0.332031 1.628906 -0.242188 1.703125 -0.171875 C 1.785156 -0.0976562 1.878906 -0.0625 1.984375 -0.0625 L 2.046875 -0.0625 L 2.0625 0 L 0.25 0 L 0.25 -0.0625 Z M 0.328125 -0.0625 "/></g></g></g><g fill="#000000" fill-opacity="1"><g transform="translate(17.638582, 5.762342)"><g><path d="M 4.859375 -4.109375 C 4.722656 -4.109375 4.617188 -4.046875 4.546875 -3.921875 C 4.515625 -3.878906 4.5 -3.820312 4.5 -3.75 L 4.5 -0.671875 C 4.5 -0.410156 4.515625 -0.1875 4.546875 0 L 4.5625 0.078125 L 4.515625 0.078125 L 1.5 -2.78125 L 1.5 -0.421875 C 1.5 -0.316406 1.535156 -0.226562 1.609375 -0.15625 C 1.679688 -0.09375 1.769531 -0.0625 1.875 -0.0625 L 1.984375 -0.0625 L 1.984375 0 L 0.171875 0 L 0.171875 -0.0625 L 0.28125 -0.0625 C 0.382812 -0.0625 0.472656 -0.09375 0.546875 -0.15625 C 0.617188 -0.226562 0.65625 -0.316406 0.65625 -0.421875 L 0.65625 -3.515625 C 0.65625 -3.773438 0.632812 -3.992188 0.59375 -4.171875 L 0.59375 -4.25 L 0.640625 -4.25 L 3.65625 -1.390625 L 3.65625 -3.75 C 3.644531 -3.851562 3.601562 -3.9375 3.53125 -4 C 3.457031 -4.070312 3.375 -4.109375 3.28125 -4.109375 L 3.171875 -4.109375 L 3.171875 -4.171875 L 4.984375 -4.171875 L 4.984375 -4.109375 Z M 4.859375 -4.109375 "/></g></g></g><g fill="#000000" fill-opacity="1"><g transform="translate(22.785292, 5.762342)"><g><path d="M 0.296875 -0.546875 C 0.296875 -0.835938 0.359375 -1.082031 0.484375 -1.28125 L 0.53125 -1.28125 C 0.53125 -1.25 0.53125 -1.21875 0.53125 -1.1875 C 0.53125 -0.914062 0.628906 -0.675781 0.828125 -0.46875 C 1.023438 -0.269531 1.289062 -0.171875 1.625 -0.171875 C 1.894531 -0.171875 2.101562 -0.234375 2.25 -0.359375 C 2.394531 -0.484375 2.46875 -0.644531 2.46875 -0.84375 C 2.46875 -0.957031 2.429688 -1.054688 2.359375 -1.140625 C 2.285156 -1.234375 2.164062 -1.335938 2 -1.453125 L 0.96875 -2.140625 C 0.582031 -2.398438 0.390625 -2.71875 0.390625 -3.09375 C 0.390625 -3.132812 0.394531 -3.171875 0.40625 -3.203125 C 0.425781 -3.515625 0.546875 -3.765625 0.765625 -3.953125 C 0.984375 -4.148438 1.28125 -4.25 1.65625 -4.25 C 1.863281 -4.25 2.128906 -4.226562 2.453125 -4.1875 L 2.828125 -4.1875 L 2.75 -3.3125 L 2.703125 -3.3125 C 2.703125 -3.519531 2.625 -3.6875 2.46875 -3.8125 C 2.3125 -3.9375 2.109375 -4 1.859375 -4 C 1.546875 -4 1.320312 -3.90625 1.1875 -3.71875 C 1.113281 -3.625 1.078125 -3.53125 1.078125 -3.4375 C 1.078125 -3.34375 1.09375 -3.265625 1.125 -3.203125 C 1.1875 -3.097656 1.3125 -2.988281 1.5 -2.875 L 2.625 -2.140625 C 2.988281 -1.898438 3.171875 -1.59375 3.171875 -1.21875 C 3.171875 -0.800781 3.023438 -0.476562 2.734375 -0.25 C 2.441406 -0.03125 2.0625 0.078125 1.59375 0.078125 C 1.320312 0.078125 1.070312 0.046875 0.84375 -0.015625 C 0.613281 -0.078125 0.445312 -0.164062 0.34375 -0.28125 C 0.3125 -0.351562 0.296875 -0.441406 0.296875 -0.546875 Z M 0.296875 -0.546875 "/></g></g></g><g fill="#000000" fill-opacity="1"><g transform="translate(26.224368, 5.762342)"><g><path d="M 4.703125 -4.109375 L 4.609375 -4.109375 C 4.523438 -4.109375 4.453125 -4.082031 4.390625 -4.03125 C 4.328125 -3.976562 4.296875 -3.910156 4.296875 -3.828125 L 4.296875 -1.5 C 4.296875 -1.019531 4.140625 -0.632812 3.828125 -0.34375 C 3.523438 -0.0625 3.109375 0.078125 2.578125 0.078125 C 1.953125 0.078125 1.472656 -0.0546875 1.140625 -0.328125 C 0.804688 -0.609375 0.640625 -1 0.640625 -1.5 L 0.640625 -3.8125 C 0.628906 -3.925781 0.570312 -4.015625 0.46875 -4.078125 C 0.425781 -4.097656 0.378906 -4.109375 0.328125 -4.109375 L 0.21875 -4.109375 L 0.21875 -4.171875 L 1.9375 -4.171875 L 1.9375 -4.109375 L 1.84375 -4.109375 C 1.757812 -4.109375 1.6875 -4.082031 1.625 -4.03125 C 1.5625 -3.976562 1.53125 -3.910156 1.53125 -3.828125 L 1.53125 -1.546875 C 1.53125 -1.128906 1.632812 -0.796875 1.84375 -0.546875 C 2.050781 -0.296875 2.332031 -0.171875 2.6875 -0.171875 C 3.050781 -0.171875 3.335938 -0.285156 3.546875 -0.515625 C 3.753906 -0.753906 3.863281 -1.070312 3.875 -1.46875 L 3.875 -3.828125 C 3.863281 -3.941406 3.804688 -4.023438 3.703125 -4.078125 C 3.660156 -4.097656 3.609375 -4.109375 3.546875 -4.109375 L 3.453125 -4.109375 L 3.453125 -4.171875 L 4.703125 -4.171875 Z M 4.703125 -4.109375 "/></g></g></g><g fill="#000000" fill-opacity="1"><g transform="translate(31.109282, 5.762342)"><g><path d="M 1.890625 -3.90625 L 1.640625 -3.90625 C 1.628906 -3.90625 1.625 -3.90625 1.625 -3.90625 L 1.625 -0.4375 C 1.625 -0.332031 1.660156 -0.242188 1.734375 -0.171875 C 1.804688 -0.0976562 1.894531 -0.0625 2 -0.0625 L 2.078125 -0.0625 L 2.078125 0 L 0.265625 0 L 0.265625 -0.0625 L 0.34375 -0.0625 C 0.488281 -0.0625 0.597656 -0.125 0.671875 -0.25 C 0.703125 -0.300781 0.71875 -0.359375 0.71875 -0.421875 L 0.71875 -3.734375 C 0.71875 -3.835938 0.679688 -3.925781 0.609375 -4 C 0.535156 -4.070312 0.445312 -4.109375 0.34375 -4.109375 L 0.265625 -4.109375 L 0.265625 -4.171875 L 2.3125 -4.171875 C 2.695312 -4.171875 3.019531 -4.085938 3.28125 -3.921875 C 3.414062 -3.835938 3.523438 -3.71875 3.609375 -3.5625 C 3.691406 -3.414062 3.734375 -3.222656 3.734375 -2.984375 C 3.734375 -2.742188 3.648438 -2.507812 3.484375 -2.28125 C 3.316406 -2.0625 3.070312 -1.9375 2.75 -1.90625 C 2.976562 -1.832031 3.179688 -1.660156 3.359375 -1.390625 C 3.785156 -0.703125 4.101562 -0.289062 4.3125 -0.15625 C 4.414062 -0.09375 4.546875 -0.0625 4.703125 -0.0625 L 4.703125 0 L 4.109375 0 C 3.765625 0 3.476562 -0.046875 3.25 -0.140625 C 3.019531 -0.234375 2.84375 -0.394531 2.71875 -0.625 C 2.632812 -0.75 2.46875 -1.085938 2.21875 -1.640625 C 2.101562 -1.878906 1.96875 -2.007812 1.8125 -2.03125 L 1.8125 -2.09375 L 2 -2.09375 C 2.175781 -2.09375 2.332031 -2.144531 2.46875 -2.25 C 2.601562 -2.363281 2.695312 -2.539062 2.75 -2.78125 C 2.769531 -2.863281 2.78125 -2.925781 2.78125 -2.96875 C 2.78125 -3.300781 2.710938 -3.539062 2.578125 -3.6875 C 2.441406 -3.832031 2.273438 -3.90625 2.078125 -3.90625 C 2.035156 -3.90625 1.972656 -3.90625 1.890625 -3.90625 Z M 1.890625 -3.90625 "/></g></g></g><g fill="#000000" fill-opacity="1"><g transform="translate(35.553902, 5.762342)"><g><path d="M 4.390625 -0.0625 L 4.4375 -0.0625 L 4.4375 0 L 2.546875 0 L 2.546875 -0.0625 L 2.59375 -0.0625 C 2.675781 -0.0625 2.738281 -0.0859375 2.78125 -0.140625 C 2.820312 -0.191406 2.84375 -0.238281 2.84375 -0.28125 C 2.84375 -0.332031 2.835938 -0.382812 2.828125 -0.4375 L 2.53125 -1.171875 L 1.140625 -1.171875 L 0.828125 -0.4375 C 0.804688 -0.382812 0.796875 -0.332031 0.796875 -0.28125 C 0.796875 -0.238281 0.816406 -0.191406 0.859375 -0.140625 C 0.898438 -0.0859375 0.96875 -0.0625 1.0625 -0.0625 L 1.109375 -0.0625 L 1.109375 0 L -0.171875 0 L -0.171875 -0.0625 L -0.109375 -0.0625 C -0.015625 -0.0625 0.0703125 -0.0859375 0.15625 -0.140625 C 0.25 -0.191406 0.328125 -0.273438 0.390625 -0.390625 L 1.765625 -3.5 C 1.953125 -3.894531 2.050781 -4.15625 2.0625 -4.28125 L 2.109375 -4.28125 L 3.875 -0.40625 C 3.9375 -0.289062 4.015625 -0.203125 4.109375 -0.140625 C 4.203125 -0.0859375 4.296875 -0.0625 4.390625 -0.0625 Z M 1.234375 -1.421875 L 2.421875 -1.421875 L 1.84375 -2.875 Z M 1.234375 -1.421875 "/></g></g></g><g fill="#000000" fill-opacity="1"><g transform="translate(39.814069, 5.762342)"><g><path d="M 4.859375 -4.109375 C 4.722656 -4.109375 4.617188 -4.046875 4.546875 -3.921875 C 4.515625 -3.878906 4.5 -3.820312 4.5 -3.75 L 4.5 -0.671875 C 4.5 -0.410156 4.515625 -0.1875 4.546875 0 L 4.5625 0.078125 L 4.515625 0.078125 L 1.5 -2.78125 L 1.5 -0.421875 C 1.5 -0.316406 1.535156 -0.226562 1.609375 -0.15625 C 1.679688 -0.09375 1.769531 -0.0625 1.875 -0.0625 L 1.984375 -0.0625 L 1.984375 0 L 0.171875 0 L 0.171875 -0.0625 L 0.28125 -0.0625 C 0.382812 -0.0625 0.472656 -0.09375 0.546875 -0.15625 C 0.617188 -0.226562 0.65625 -0.316406 0.65625 -0.421875 L 0.65625 -3.515625 C 0.65625 -3.773438 0.632812 -3.992188 0.59375 -4.171875 L 0.59375 -4.25 L 0.640625 -4.25 L 3.65625 -1.390625 L 3.65625 -3.75 C 3.644531 -3.851562 3.601562 -3.9375 3.53125 -4 C 3.457031 -4.070312 3.375 -4.109375 3.28125 -4.109375 L 3.171875 -4.109375 L 3.171875 -4.171875 L 4.984375 -4.171875 L 4.984375 -4.109375 Z M 4.859375 -4.109375 "/></g></g></g><g fill="#000000" fill-opacity="1"><g transform="translate(44.960779, 5.762342)"><g><path d="M 2.71875 0.078125 C 1.957031 0.078125 1.359375 -0.113281 0.921875 -0.5 C 0.484375 -0.882812 0.265625 -1.410156 0.265625 -2.078125 C 0.265625 -2.753906 0.476562 -3.285156 0.90625 -3.671875 C 1.34375 -4.054688 1.941406 -4.25 2.703125 -4.25 C 3.273438 -4.25 3.765625 -4.140625 4.171875 -3.921875 L 4.1875 -2.90625 L 4.140625 -2.90625 C 3.941406 -3.632812 3.476562 -4 2.75 -4 C 2.28125 -4 1.910156 -3.828125 1.640625 -3.484375 C 1.367188 -3.148438 1.234375 -2.6875 1.234375 -2.09375 C 1.234375 -1.507812 1.363281 -1.046875 1.625 -0.703125 C 1.882812 -0.359375 2.238281 -0.179688 2.6875 -0.171875 C 3.144531 -0.171875 3.492188 -0.285156 3.734375 -0.515625 C 3.984375 -0.753906 4.15625 -1.160156 4.25 -1.734375 L 4.296875 -1.734375 L 4.359375 -0.71875 C 4.035156 -0.1875 3.488281 0.078125 2.71875 0.078125 Z M 2.71875 0.078125 "/></g></g></g><g fill="#000000" fill-opacity="1"><g transform="translate(49.601744, 5.762342)"><g><path d="M 0.328125 -0.0625 C 0.429688 -0.0625 0.519531 -0.0976562 0.59375 -0.171875 C 0.664062 -0.242188 0.703125 -0.332031 0.703125 -0.4375 L 0.703125 -3.75 C 0.703125 -3.851562 0.675781 -3.929688 0.625 -3.984375 C 0.519531 -4.066406 0.421875 -4.109375 0.328125 -4.109375 L 0.25 -4.109375 L 0.25 -4.171875 L 2.53125 -4.171875 C 2.726562 -4.171875 2.890625 -4.179688 3.015625 -4.203125 C 3.140625 -4.234375 3.21875 -4.257812 3.25 -4.28125 L 3.25 -3.234375 L 3.1875 -3.234375 L 3.1875 -3.296875 C 3.1875 -3.546875 3.09375 -3.722656 2.90625 -3.828125 C 2.820312 -3.878906 2.71875 -3.90625 2.59375 -3.90625 L 1.59375 -3.90625 L 1.59375 -2.171875 L 2.390625 -2.171875 C 2.535156 -2.179688 2.65625 -2.234375 2.75 -2.328125 C 2.84375 -2.421875 2.890625 -2.539062 2.890625 -2.6875 L 2.890625 -2.75 L 2.953125 -2.75 L 2.953125 -1.375 L 2.890625 -1.375 L 2.890625 -1.421875 C 2.890625 -1.566406 2.84375 -1.6875 2.75 -1.78125 C 2.65625 -1.875 2.539062 -1.921875 2.40625 -1.921875 L 1.59375 -1.921875 L 1.59375 -0.25 L 2.375 -0.25 C 2.664062 -0.25 2.910156 -0.332031 3.109375 -0.5 C 3.304688 -0.664062 3.453125 -0.90625 3.546875 -1.21875 L 3.609375 -1.21875 L 3.328125 0 L 0.25 0 L 0.25 -0.0625 Z M 0.328125 -0.0625 "/></g></g></g><g fill="#000000" fill-opacity="1"><g transform="translate(9.59065, 13.695563)"><g><path d="M 2.515625 0.078125 C 1.835938 0.078125 1.289062 -0.113281 0.875 -0.5 C 0.46875 -0.894531 0.265625 -1.421875 0.265625 -2.078125 C 0.265625 -2.742188 0.46875 -3.269531 0.875 -3.65625 C 1.289062 -4.050781 1.847656 -4.25 2.546875 -4.25 C 2.867188 -4.25 3.175781 -4.21875 3.46875 -4.15625 C 3.769531 -4.09375 4.015625 -4.015625 4.203125 -3.921875 L 4.203125 -2.90625 L 4.15625 -2.90625 C 4.050781 -3.289062 3.875 -3.566406 3.625 -3.734375 C 3.375 -3.910156 3.078125 -4 2.734375 -4 C 2.253906 -4 1.882812 -3.828125 1.625 -3.484375 C 1.363281 -3.140625 1.234375 -2.664062 1.234375 -2.0625 C 1.234375 -1.46875 1.351562 -1.003906 1.59375 -0.671875 C 1.832031 -0.335938 2.164062 -0.171875 2.59375 -0.171875 C 2.90625 -0.171875 3.164062 -0.257812 3.375 -0.4375 C 3.476562 -0.53125 3.554688 -0.632812 3.609375 -0.75 L 3.609375 -1.671875 C 3.609375 -1.753906 3.582031 -1.816406 3.53125 -1.859375 C 3.476562 -1.910156 3.398438 -1.9375 3.296875 -1.9375 L 3.203125 -1.9375 L 3.203125 -2 L 4.875 -2 L 4.875 -1.9375 L 4.78125 -1.9375 C 4.6875 -1.9375 4.613281 -1.910156 4.5625 -1.859375 C 4.507812 -1.816406 4.484375 -1.753906 4.484375 -1.671875 L 4.484375 -0.6875 C 4.328125 -0.476562 4.070312 -0.296875 3.71875 -0.140625 C 3.363281 0.00390625 2.960938 0.078125 2.515625 0.078125 Z M 2.515625 0.078125 "/></g></g></g><g fill="#000000" fill-opacity="1"><g transform="translate(14.564816, 13.695563)"><g><path d="M 4.703125 -4.109375 L 4.609375 -4.109375 C 4.523438 -4.109375 4.453125 -4.082031 4.390625 -4.03125 C 4.328125 -3.976562 4.296875 -3.910156 4.296875 -3.828125 L 4.296875 -1.5 C 4.296875 -1.019531 4.140625 -0.632812 3.828125 -0.34375 C 3.523438 -0.0625 3.109375 0.078125 2.578125 0.078125 C 1.953125 0.078125 1.472656 -0.0546875 1.140625 -0.328125 C 0.804688 -0.609375 0.640625 -1 0.640625 -1.5 L 0.640625 -3.8125 C 0.628906 -3.925781 0.570312 -4.015625 0.46875 -4.078125 C 0.425781 -4.097656 0.378906 -4.109375 0.328125 -4.109375 L 0.21875 -4.109375 L 0.21875 -4.171875 L 1.9375 -4.171875 L 1.9375 -4.109375 L 1.84375 -4.109375 C 1.757812 -4.109375 1.6875 -4.082031 1.625 -4.03125 C 1.5625 -3.976562 1.53125 -3.910156 1.53125 -3.828125 L 1.53125 -1.546875 C 1.53125 -1.128906 1.632812 -0.796875 1.84375 -0.546875 C 2.050781 -0.296875 2.332031 -0.171875 2.6875 -0.171875 C 3.050781 -0.171875 3.335938 -0.285156 3.546875 -0.515625 C 3.753906 -0.753906 3.863281 -1.070312 3.875 -1.46875 L 3.875 -3.828125 C 3.863281 -3.941406 3.804688 -4.023438 3.703125 -4.078125 C 3.660156 -4.097656 3.609375 -4.109375 3.546875 -4.109375 L 3.453125 -4.109375 L 3.453125 -4.171875 L 4.703125 -4.171875 Z M 4.703125 -4.109375 "/></g></g></g><g fill="#000000" fill-opacity="1"><g transform="translate(19.44973, 13.695563)"><g><path d="M 4.390625 -0.0625 L 4.4375 -0.0625 L 4.4375 0 L 2.546875 0 L 2.546875 -0.0625 L 2.59375 -0.0625 C 2.675781 -0.0625 2.738281 -0.0859375 2.78125 -0.140625 C 2.820312 -0.191406 2.84375 -0.238281 2.84375 -0.28125 C 2.84375 -0.332031 2.835938 -0.382812 2.828125 -0.4375 L 2.53125 -1.171875 L 1.140625 -1.171875 L 0.828125 -0.4375 C 0.804688 -0.382812 0.796875 -0.332031 0.796875 -0.28125 C 0.796875 -0.238281 0.816406 -0.191406 0.859375 -0.140625 C 0.898438 -0.0859375 0.96875 -0.0625 1.0625 -0.0625 L 1.109375 -0.0625 L 1.109375 0 L -0.171875 0 L -0.171875 -0.0625 L -0.109375 -0.0625 C -0.015625 -0.0625 0.0703125 -0.0859375 0.15625 -0.140625 C 0.25 -0.191406 0.328125 -0.273438 0.390625 -0.390625 L 1.765625 -3.5 C 1.953125 -3.894531 2.050781 -4.15625 2.0625 -4.28125 L 2.109375 -4.28125 L 3.875 -0.40625 C 3.9375 -0.289062 4.015625 -0.203125 4.109375 -0.140625 C 4.203125 -0.0859375 4.296875 -0.0625 4.390625 -0.0625 Z M 1.234375 -1.421875 L 2.421875 -1.421875 L 1.84375 -2.875 Z M 1.234375 -1.421875 "/></g></g></g><g fill="#000000" fill-opacity="1"><g transform="translate(23.709897, 13.695563)"><g><path d="M 1.890625 -3.90625 L 1.640625 -3.90625 C 1.628906 -3.90625 1.625 -3.90625 1.625 -3.90625 L 1.625 -0.4375 C 1.625 -0.332031 1.660156 -0.242188 1.734375 -0.171875 C 1.804688 -0.0976562 1.894531 -0.0625 2 -0.0625 L 2.078125 -0.0625 L 2.078125 0 L 0.265625 0 L 0.265625 -0.0625 L 0.34375 -0.0625 C 0.488281 -0.0625 0.597656 -0.125 0.671875 -0.25 C 0.703125 -0.300781 0.71875 -0.359375 0.71875 -0.421875 L 0.71875 -3.734375 C 0.71875 -3.835938 0.679688 -3.925781 0.609375 -4 C 0.535156 -4.070312 0.445312 -4.109375 0.34375 -4.109375 L 0.265625 -4.109375 L 0.265625 -4.171875 L 2.3125 -4.171875 C 2.695312 -4.171875 3.019531 -4.085938 3.28125 -3.921875 C 3.414062 -3.835938 3.523438 -3.71875 3.609375 -3.5625 C 3.691406 -3.414062 3.734375 -3.222656 3.734375 -2.984375 C 3.734375 -2.742188 3.648438 -2.507812 3.484375 -2.28125 C 3.316406 -2.0625 3.070312 -1.9375 2.75 -1.90625 C 2.976562 -1.832031 3.179688 -1.660156 3.359375 -1.390625 C 3.785156 -0.703125 4.101562 -0.289062 4.3125 -0.15625 C 4.414062 -0.09375 4.546875 -0.0625 4.703125 -0.0625 L 4.703125 0 L 4.109375 0 C 3.765625 0 3.476562 -0.046875 3.25 -0.140625 C 3.019531 -0.234375 2.84375 -0.394531 2.71875 -0.625 C 2.632812 -0.75 2.46875 -1.085938 2.21875 -1.640625 C 2.101562 -1.878906 1.96875 -2.007812 1.8125 -2.03125 L 1.8125 -2.09375 L 2 -2.09375 C 2.175781 -2.09375 2.332031 -2.144531 2.46875 -2.25 C 2.601562 -2.363281 2.695312 -2.539062 2.75 -2.78125 C 2.769531 -2.863281 2.78125 -2.925781 2.78125 -2.96875 C 2.78125 -3.300781 2.710938 -3.539062 2.578125 -3.6875 C 2.441406 -3.832031 2.273438 -3.90625 2.078125 -3.90625 C 2.035156 -3.90625 1.972656 -3.90625 1.890625 -3.90625 Z M 1.890625 -3.90625 "/></g></g></g><g fill="#000000" fill-opacity="1"><g transform="translate(28.154517, 13.695563)"><g><path d="M 2.40625 -4.171875 C 3.113281 -4.171875 3.671875 -3.984375 4.078125 -3.609375 C 4.484375 -3.234375 4.6875 -2.722656 4.6875 -2.078125 C 4.6875 -1.441406 4.484375 -0.9375 4.078125 -0.5625 C 3.671875 -0.1875 3.113281 0 2.40625 0 L 0.25 0 L 0.25 -0.0625 L 0.328125 -0.0625 C 0.429688 -0.0625 0.519531 -0.0976562 0.59375 -0.171875 C 0.664062 -0.242188 0.703125 -0.332031 0.703125 -0.4375 L 0.703125 -3.765625 C 0.703125 -3.859375 0.660156 -3.9375 0.578125 -4 C 0.503906 -4.070312 0.421875 -4.109375 0.328125 -4.109375 L 0.25 -4.109375 L 0.25 -4.171875 Z M 2.328125 -0.25 C 2.617188 -0.25 2.867188 -0.320312 3.078125 -0.46875 C 3.285156 -0.625 3.441406 -0.835938 3.546875 -1.109375 C 3.660156 -1.390625 3.71875 -1.691406 3.71875 -2.015625 C 3.71875 -2.335938 3.6875 -2.613281 3.625 -2.84375 C 3.5625 -3.070312 3.46875 -3.265625 3.34375 -3.421875 C 3.09375 -3.753906 2.753906 -3.921875 2.328125 -3.921875 L 1.59375 -3.921875 L 1.59375 -0.25 Z M 2.328125 -0.25 "/></g></g></g><g fill="#000000" fill-opacity="1"><g transform="translate(33.08108, 13.695563)"><g><path d="M 0.328125 -0.0625 C 0.429688 -0.0625 0.519531 -0.0976562 0.59375 -0.171875 C 0.664062 -0.242188 0.703125 -0.332031 0.703125 -0.4375 L 0.703125 -3.734375 C 0.703125 -3.835938 0.664062 -3.925781 0.59375 -4 C 0.519531 -4.070312 0.429688 -4.109375 0.328125 -4.109375 L 0.25 -4.109375 L 0.25 -4.171875 L 2.0625 -4.171875 L 2.046875 -4.109375 L 1.984375 -4.109375 C 1.878906 -4.109375 1.785156 -4.070312 1.703125 -4 C 1.628906 -3.925781 1.59375 -3.835938 1.59375 -3.734375 L 1.59375 -0.4375 C 1.59375 -0.332031 1.628906 -0.242188 1.703125 -0.171875 C 1.785156 -0.0976562 1.878906 -0.0625 1.984375 -0.0625 L 2.046875 -0.0625 L 2.0625 0 L 0.25 0 L 0.25 -0.0625 Z M 0.328125 -0.0625 "/></g></g></g><g fill="#000000" fill-opacity="1"><g transform="translate(35.377764, 13.695563)"><g><path d="M 4.390625 -0.0625 L 4.4375 -0.0625 L 4.4375 0 L 2.546875 0 L 2.546875 -0.0625 L 2.59375 -0.0625 C 2.675781 -0.0625 2.738281 -0.0859375 2.78125 -0.140625 C 2.820312 -0.191406 2.84375 -0.238281 2.84375 -0.28125 C 2.84375 -0.332031 2.835938 -0.382812 2.828125 -0.4375 L 2.53125 -1.171875 L 1.140625 -1.171875 L 0.828125 -0.4375 C 0.804688 -0.382812 0.796875 -0.332031 0.796875 -0.28125 C 0.796875 -0.238281 0.816406 -0.191406 0.859375 -0.140625 C 0.898438 -0.0859375 0.96875 -0.0625 1.0625 -0.0625 L 1.109375 -0.0625 L 1.109375 0 L -0.171875 0 L -0.171875 -0.0625 L -0.109375 -0.0625 C -0.015625 -0.0625 0.0703125 -0.0859375 0.15625 -0.140625 C 0.25 -0.191406 0.328125 -0.273438 0.390625 -0.390625 L 1.765625 -3.5 C 1.953125 -3.894531 2.050781 -4.15625 2.0625 -4.28125 L 2.109375 -4.28125 L 3.875 -0.40625 C 3.9375 -0.289062 4.015625 -0.203125 4.109375 -0.140625 C 4.203125 -0.0859375 4.296875 -0.0625 4.390625 -0.0625 Z M 1.234375 -1.421875 L 2.421875 -1.421875 L 1.84375 -2.875 Z M 1.234375 -1.421875 "/></g></g></g><g fill="#000000" fill-opacity="1"><g transform="translate(39.637932, 13.695563)"><g><path d="M 4.859375 -4.109375 C 4.722656 -4.109375 4.617188 -4.046875 4.546875 -3.921875 C 4.515625 -3.878906 4.5 -3.820312 4.5 -3.75 L 4.5 -0.671875 C 4.5 -0.410156 4.515625 -0.1875 4.546875 0 L 4.5625 0.078125 L 4.515625 0.078125 L 1.5 -2.78125 L 1.5 -0.421875 C 1.5 -0.316406 1.535156 -0.226562 1.609375 -0.15625 C 1.679688 -0.09375 1.769531 -0.0625 1.875 -0.0625 L 1.984375 -0.0625 L 1.984375 0 L 0.171875 0 L 0.171875 -0.0625 L 0.28125 -0.0625 C 0.382812 -0.0625 0.472656 -0.09375 0.546875 -0.15625 C 0.617188 -0.226562 0.65625 -0.316406 0.65625 -0.421875 L 0.65625 -3.515625 C 0.65625 -3.773438 0.632812 -3.992188 0.59375 -4.171875 L 0.59375 -4.25 L 0.640625 -4.25 L 3.65625 -1.390625 L 3.65625 -3.75 C 3.644531 -3.851562 3.601562 -3.9375 3.53125 -4 C 3.457031 -4.070312 3.375 -4.109375 3.28125 -4.109375 L 3.171875 -4.109375 L 3.171875 -4.171875 L 4.984375 -4.171875 L 4.984375 -4.109375 Z M 4.859375 -4.109375 "/></g></g></g></g></g><g transform="matrix(1, 0, 0, 1, 46, 22)"><g clip-path="url(#e6b5664ef5)"><g clip-path="url(#f05bded3d2)"><g fill="#000000" fill-opacity="1"><g transform="translate(0.526107, 3.451615)"><g><path d="M 0.609375 0.03125 C 0.503906 0.03125 0.414062 0.015625 0.34375 -0.015625 C 0.269531 -0.0546875 0.210938 -0.113281 0.171875 -0.1875 C 0.140625 -0.257812 0.125 -0.347656 0.125 -0.453125 C 0.125 -0.535156 0.140625 -0.609375 0.171875 -0.671875 C 0.210938 -0.734375 0.273438 -0.785156 0.359375 -0.828125 C 0.441406 -0.867188 0.550781 -0.898438 0.6875 -0.921875 C 0.78125 -0.941406 0.847656 -0.957031 0.890625 -0.96875 C 0.941406 -0.988281 0.976562 -1.007812 1 -1.03125 C 1.019531 -1.0625 1.03125 -1.09375 1.03125 -1.125 C 1.03125 -1.175781 1.007812 -1.210938 0.96875 -1.234375 C 0.9375 -1.265625 0.878906 -1.28125 0.796875 -1.28125 C 0.710938 -1.28125 0.628906 -1.257812 0.546875 -1.21875 C 0.472656 -1.175781 0.40625 -1.125 0.34375 -1.0625 L 0.3125 -1.0625 L 0.15625 -1.3125 C 0.238281 -1.40625 0.335938 -1.472656 0.453125 -1.515625 C 0.566406 -1.566406 0.6875 -1.59375 0.8125 -1.59375 C 1.019531 -1.59375 1.171875 -1.546875 1.265625 -1.453125 C 1.359375 -1.367188 1.40625 -1.25 1.40625 -1.09375 L 1.40625 -0.40625 C 1.40625 -0.332031 1.4375 -0.296875 1.5 -0.296875 C 1.519531 -0.296875 1.546875 -0.300781 1.578125 -0.3125 L 1.59375 -0.3125 L 1.625 -0.03125 C 1.601562 -0.0195312 1.570312 -0.0078125 1.53125 0 C 1.488281 0.0078125 1.445312 0.015625 1.40625 0.015625 C 1.3125 0.015625 1.238281 0 1.1875 -0.03125 C 1.132812 -0.0703125 1.09375 -0.132812 1.0625 -0.21875 L 1.03125 -0.21875 C 0.957031 -0.0507812 0.816406 0.03125 0.609375 0.03125 Z M 0.734375 -0.265625 C 0.828125 -0.265625 0.898438 -0.296875 0.953125 -0.359375 C 1.003906 -0.421875 1.03125 -0.503906 1.03125 -0.609375 L 1.03125 -0.765625 L 1 -0.78125 C 0.976562 -0.757812 0.945312 -0.738281 0.90625 -0.71875 C 0.875 -0.707031 0.820312 -0.695312 0.75 -0.6875 C 0.664062 -0.675781 0.601562 -0.648438 0.5625 -0.609375 C 0.53125 -0.578125 0.515625 -0.53125 0.515625 -0.46875 C 0.515625 -0.40625 0.53125 -0.351562 0.5625 -0.3125 C 0.601562 -0.28125 0.660156 -0.265625 0.734375 -0.265625 Z M 0.734375 -0.265625 "/></g></g><g transform="translate(2.174765, 3.451615)"><g/></g><g transform="translate(2.859461, 3.451615)"><g><path d="M 0.21875 0 L 0.21875 -1.5625 L 0.609375 -1.5625 L 0.609375 -1.328125 L 0.640625 -1.328125 C 0.734375 -1.503906 0.890625 -1.59375 1.109375 -1.59375 C 1.285156 -1.59375 1.414062 -1.539062 1.5 -1.4375 C 1.582031 -1.34375 1.625 -1.203125 1.625 -1.015625 L 1.625 0 L 1.234375 0 L 1.234375 -0.96875 C 1.234375 -1.070312 1.210938 -1.144531 1.171875 -1.1875 C 1.128906 -1.238281 1.0625 -1.265625 0.96875 -1.265625 C 0.863281 -1.265625 0.78125 -1.226562 0.71875 -1.15625 C 0.65625 -1.082031 0.625 -0.96875 0.625 -0.8125 L 0.625 0 Z M 0.21875 0 "/></g></g><g transform="translate(4.690989, 3.451615)"><g><path d="M 0.90625 0.03125 C 0.757812 0.03125 0.625 0 0.5 -0.0625 C 0.382812 -0.125 0.296875 -0.21875 0.234375 -0.34375 C 0.171875 -0.46875 0.140625 -0.613281 0.140625 -0.78125 C 0.140625 -0.957031 0.171875 -1.101562 0.234375 -1.21875 C 0.296875 -1.34375 0.382812 -1.4375 0.5 -1.5 C 0.625 -1.5625 0.757812 -1.59375 0.90625 -1.59375 C 1.0625 -1.59375 1.195312 -1.5625 1.3125 -1.5 C 1.425781 -1.4375 1.515625 -1.34375 1.578125 -1.21875 C 1.648438 -1.101562 1.6875 -0.957031 1.6875 -0.78125 C 1.6875 -0.613281 1.648438 -0.46875 1.578125 -0.34375 C 1.515625 -0.21875 1.425781 -0.125 1.3125 -0.0625 C 1.195312 0 1.0625 0.03125 0.90625 0.03125 Z M 0.90625 -0.296875 C 1.15625 -0.296875 1.28125 -0.457031 1.28125 -0.78125 C 1.28125 -0.945312 1.25 -1.066406 1.1875 -1.140625 C 1.125 -1.222656 1.03125 -1.265625 0.90625 -1.265625 C 0.664062 -1.265625 0.546875 -1.101562 0.546875 -0.78125 C 0.546875 -0.457031 0.664062 -0.296875 0.90625 -0.296875 Z M 0.90625 -0.296875 "/></g></g><g transform="translate(6.50834, 3.451615)"><g><path d="M 0.21875 0 L 0.21875 -1.5625 L 0.609375 -1.5625 L 0.609375 -1.328125 L 0.640625 -1.328125 C 0.734375 -1.503906 0.890625 -1.59375 1.109375 -1.59375 C 1.285156 -1.59375 1.414062 -1.539062 1.5 -1.4375 C 1.582031 -1.34375 1.625 -1.203125 1.625 -1.015625 L 1.625 0 L 1.234375 0 L 1.234375 -0.96875 C 1.234375 -1.070312 1.210938 -1.144531 1.171875 -1.1875 C 1.128906 -1.238281 1.0625 -1.265625 0.96875 -1.265625 C 0.863281 -1.265625 0.78125 -1.226562 0.71875 -1.15625 C 0.65625 -1.082031 0.625 -0.96875 0.625 -0.8125 L 0.625 0 Z M 0.21875 0 "/></g></g><g transform="translate(8.339867, 3.451615)"><g><path d="M 1 -0.828125 L 0.125 -0.828125 L 0.125 -1.1875 L 1 -1.1875 Z M 1 -0.828125 "/></g></g><g transform="translate(9.458347, 3.451615)"><g><path d="M 0.8125 0.671875 C 0.550781 0.671875 0.359375 0.628906 0.234375 0.546875 C 0.117188 0.472656 0.0625 0.367188 0.0625 0.234375 C 0.0625 0.148438 0.0859375 0.0820312 0.140625 0.03125 C 0.191406 -0.0195312 0.265625 -0.0546875 0.359375 -0.078125 L 0.359375 -0.109375 C 0.304688 -0.140625 0.269531 -0.171875 0.25 -0.203125 C 0.226562 -0.242188 0.21875 -0.289062 0.21875 -0.34375 C 0.21875 -0.46875 0.296875 -0.554688 0.453125 -0.609375 L 0.453125 -0.625 C 0.367188 -0.675781 0.304688 -0.738281 0.265625 -0.8125 C 0.222656 -0.882812 0.203125 -0.96875 0.203125 -1.0625 C 0.203125 -1.164062 0.222656 -1.257812 0.265625 -1.34375 C 0.316406 -1.425781 0.390625 -1.488281 0.484375 -1.53125 C 0.578125 -1.570312 0.6875 -1.59375 0.8125 -1.59375 C 0.945312 -1.59375 1.050781 -1.570312 1.125 -1.53125 C 1.175781 -1.59375 1.207031 -1.671875 1.21875 -1.765625 L 1.234375 -1.78125 L 1.53125 -1.71875 C 1.519531 -1.644531 1.492188 -1.582031 1.453125 -1.53125 C 1.421875 -1.476562 1.367188 -1.429688 1.296875 -1.390625 L 1.296875 -1.359375 C 1.378906 -1.285156 1.421875 -1.175781 1.421875 -1.03125 C 1.421875 -0.9375 1.394531 -0.851562 1.34375 -0.78125 C 1.300781 -0.707031 1.234375 -0.644531 1.140625 -0.59375 C 1.046875 -0.550781 0.9375 -0.53125 0.8125 -0.53125 L 0.75 -0.53125 C 0.71875 -0.53125 0.691406 -0.53125 0.671875 -0.53125 C 0.640625 -0.53125 0.613281 -0.519531 0.59375 -0.5 C 0.570312 -0.488281 0.5625 -0.46875 0.5625 -0.4375 C 0.5625 -0.394531 0.570312 -0.363281 0.59375 -0.34375 C 0.625 -0.332031 0.664062 -0.328125 0.71875 -0.328125 L 1.0625 -0.3125 C 1.414062 -0.300781 1.59375 -0.148438 1.59375 0.140625 C 1.59375 0.234375 1.566406 0.320312 1.515625 0.40625 C 1.460938 0.488281 1.378906 0.550781 1.265625 0.59375 C 1.148438 0.644531 1 0.671875 0.8125 0.671875 Z M 0.8125 -0.8125 C 0.882812 -0.8125 0.941406 -0.832031 0.984375 -0.875 C 1.035156 -0.914062 1.0625 -0.976562 1.0625 -1.0625 C 1.0625 -1.144531 1.035156 -1.207031 0.984375 -1.25 C 0.941406 -1.289062 0.882812 -1.3125 0.8125 -1.3125 C 0.738281 -1.3125 0.679688 -1.289062 0.640625 -1.25 C 0.597656 -1.207031 0.578125 -1.144531 0.578125 -1.0625 C 0.578125 -0.976562 0.597656 -0.914062 0.640625 -0.875 C 0.679688 -0.832031 0.738281 -0.8125 0.8125 -0.8125 Z M 0.8125 0.375 C 0.945312 0.375 1.046875 0.351562 1.109375 0.3125 C 1.171875 0.28125 1.203125 0.234375 1.203125 0.171875 C 1.203125 0.117188 1.1875 0.0820312 1.15625 0.0625 C 1.125 0.0390625 1.070312 0.03125 1 0.03125 L 0.6875 0.015625 C 0.675781 0.015625 0.664062 0.015625 0.65625 0.015625 C 0.65625 0.015625 0.648438 0.015625 0.640625 0.015625 C 0.566406 0.015625 0.515625 0.0234375 0.484375 0.046875 C 0.453125 0.078125 0.4375 0.117188 0.4375 0.171875 C 0.4375 0.234375 0.46875 0.28125 0.53125 0.3125 C 0.59375 0.351562 0.6875 0.375 0.8125 0.375 Z M 0.8125 0.375 "/></g></g></g></g><g fill="#000000" fill-opacity="1"><g transform="translate(11.060224, 3.451615)"><g><path d="M 0.90625 0.03125 C 0.757812 0.03125 0.625 0 0.5 -0.0625 C 0.382812 -0.125 0.296875 -0.21875 0.234375 -0.34375 C 0.171875 -0.46875 0.140625 -0.613281 0.140625 -0.78125 C 0.140625 -0.957031 0.171875 -1.101562 0.234375 -1.21875 C 0.296875 -1.34375 0.382812 -1.4375 0.5 -1.5 C 0.625 -1.5625 0.757812 -1.59375 0.90625 -1.59375 C 1.0625 -1.59375 1.195312 -1.5625 1.3125 -1.5 C 1.425781 -1.4375 1.515625 -1.34375 1.578125 -1.21875 C 1.648438 -1.101562 1.6875 -0.957031 1.6875 -0.78125 C 1.6875 -0.613281 1.648438 -0.46875 1.578125 -0.34375 C 1.515625 -0.21875 1.425781 -0.125 1.3125 -0.0625 C 1.195312 0 1.0625 0.03125 0.90625 0.03125 Z M 0.90625 -0.296875 C 1.15625 -0.296875 1.28125 -0.457031 1.28125 -0.78125 C 1.28125 -0.945312 1.25 -1.066406 1.1875 -1.140625 C 1.125 -1.222656 1.03125 -1.265625 0.90625 -1.265625 C 0.664062 -1.265625 0.546875 -1.101562 0.546875 -0.78125 C 0.546875 -0.457031 0.664062 -0.296875 0.90625 -0.296875 Z M 0.90625 -0.296875 "/></g></g></g><g fill="#000000" fill-opacity="1"><g transform="translate(12.847806, 3.451615)"><g><path d="M 1.078125 0 L 0.609375 0 L 0.03125 -1.5625 L 0.4375 -1.5625 L 0.828125 -0.453125 L 0.859375 -0.453125 L 1.25 -1.5625 L 1.65625 -1.5625 Z M 1.078125 0 "/></g></g></g><g fill="#000000" fill-opacity="1"><g transform="translate(14.4993, 3.451615)"><g><path d="M 1.546875 -0.6875 L 0.546875 -0.6875 C 0.554688 -0.550781 0.59375 -0.453125 0.65625 -0.390625 C 0.71875 -0.328125 0.804688 -0.296875 0.921875 -0.296875 C 1.015625 -0.296875 1.085938 -0.3125 1.140625 -0.34375 C 1.203125 -0.382812 1.25 -0.4375 1.28125 -0.5 L 1.3125 -0.5 L 1.578125 -0.34375 C 1.523438 -0.226562 1.445312 -0.132812 1.34375 -0.0625 C 1.238281 0 1.097656 0.03125 0.921875 0.03125 C 0.765625 0.03125 0.625 0 0.5 -0.0625 C 0.382812 -0.125 0.296875 -0.210938 0.234375 -0.328125 C 0.171875 -0.453125 0.140625 -0.601562 0.140625 -0.78125 C 0.140625 -0.957031 0.171875 -1.109375 0.234375 -1.234375 C 0.304688 -1.359375 0.398438 -1.445312 0.515625 -1.5 C 0.628906 -1.5625 0.757812 -1.59375 0.90625 -1.59375 C 1.125 -1.59375 1.289062 -1.535156 1.40625 -1.421875 C 1.519531 -1.304688 1.578125 -1.132812 1.578125 -0.90625 C 1.578125 -0.820312 1.578125 -0.757812 1.578125 -0.71875 Z M 1.203125 -0.953125 C 1.203125 -1.066406 1.175781 -1.148438 1.125 -1.203125 C 1.070312 -1.265625 1 -1.296875 0.90625 -1.296875 C 0.707031 -1.296875 0.585938 -1.179688 0.546875 -0.953125 Z M 1.203125 -0.953125 "/></g></g><g transform="translate(16.198991, 3.451615)"><g><path d="M 0.21875 0 L 0.21875 -1.5625 L 0.609375 -1.5625 L 0.609375 -1.328125 L 0.640625 -1.328125 C 0.671875 -1.410156 0.71875 -1.472656 0.78125 -1.515625 C 0.84375 -1.554688 0.921875 -1.578125 1.015625 -1.578125 C 1.097656 -1.578125 1.164062 -1.5625 1.21875 -1.53125 L 1.140625 -1.1875 L 1.109375 -1.1875 C 1.085938 -1.195312 1.0625 -1.203125 1.03125 -1.203125 C 1.007812 -1.210938 0.984375 -1.21875 0.953125 -1.21875 C 0.847656 -1.21875 0.765625 -1.175781 0.703125 -1.09375 C 0.648438 -1.019531 0.625 -0.898438 0.625 -0.734375 L 0.625 0 Z M 0.21875 0 "/></g></g><g transform="translate(17.425207, 3.451615)"><g><path d="M 0.21875 0 L 0.21875 -1.5625 L 0.609375 -1.5625 L 0.609375 -1.328125 L 0.640625 -1.328125 C 0.734375 -1.503906 0.890625 -1.59375 1.109375 -1.59375 C 1.285156 -1.59375 1.414062 -1.539062 1.5 -1.4375 C 1.582031 -1.34375 1.625 -1.203125 1.625 -1.015625 L 1.625 0 L 1.234375 0 L 1.234375 -0.96875 C 1.234375 -1.070312 1.210938 -1.144531 1.171875 -1.1875 C 1.128906 -1.238281 1.0625 -1.265625 0.96875 -1.265625 C 0.863281 -1.265625 0.78125 -1.226562 0.71875 -1.15625 C 0.65625 -1.082031 0.625 -0.96875 0.625 -0.8125 L 0.625 0 Z M 0.21875 0 "/></g></g><g transform="translate(19.256734, 3.451615)"><g><path d="M 0.21875 0 L 0.21875 -1.5625 L 0.609375 -1.5625 L 0.609375 -1.359375 L 0.640625 -1.34375 C 0.679688 -1.425781 0.738281 -1.488281 0.8125 -1.53125 C 0.882812 -1.570312 0.972656 -1.59375 1.078125 -1.59375 C 1.191406 -1.59375 1.285156 -1.566406 1.359375 -1.515625 C 1.429688 -1.472656 1.484375 -1.40625 1.515625 -1.3125 L 1.546875 -1.3125 C 1.597656 -1.40625 1.660156 -1.472656 1.734375 -1.515625 C 1.804688 -1.566406 1.898438 -1.59375 2.015625 -1.59375 C 2.335938 -1.59375 2.5 -1.410156 2.5 -1.046875 L 2.5 0 L 2.109375 0 L 2.109375 -1 C 2.109375 -1.09375 2.085938 -1.160156 2.046875 -1.203125 C 2.015625 -1.242188 1.960938 -1.265625 1.890625 -1.265625 C 1.671875 -1.265625 1.5625 -1.117188 1.5625 -0.828125 L 1.5625 0 L 1.171875 0 L 1.171875 -1 C 1.171875 -1.09375 1.148438 -1.160156 1.109375 -1.203125 C 1.078125 -1.242188 1.019531 -1.265625 0.9375 -1.265625 C 0.832031 -1.265625 0.753906 -1.226562 0.703125 -1.15625 C 0.648438 -1.09375 0.625 -0.988281 0.625 -0.84375 L 0.625 0 Z M 0.21875 0 "/></g></g><g transform="translate(21.961498, 3.451615)"><g><path d="M 1.546875 -0.6875 L 0.546875 -0.6875 C 0.554688 -0.550781 0.59375 -0.453125 0.65625 -0.390625 C 0.71875 -0.328125 0.804688 -0.296875 0.921875 -0.296875 C 1.015625 -0.296875 1.085938 -0.3125 1.140625 -0.34375 C 1.203125 -0.382812 1.25 -0.4375 1.28125 -0.5 L 1.3125 -0.5 L 1.578125 -0.34375 C 1.523438 -0.226562 1.445312 -0.132812 1.34375 -0.0625 C 1.238281 0 1.097656 0.03125 0.921875 0.03125 C 0.765625 0.03125 0.625 0 0.5 -0.0625 C 0.382812 -0.125 0.296875 -0.210938 0.234375 -0.328125 C 0.171875 -0.453125 0.140625 -0.601562 0.140625 -0.78125 C 0.140625 -0.957031 0.171875 -1.109375 0.234375 -1.234375 C 0.304688 -1.359375 0.398438 -1.445312 0.515625 -1.5 C 0.628906 -1.5625 0.757812 -1.59375 0.90625 -1.59375 C 1.125 -1.59375 1.289062 -1.535156 1.40625 -1.421875 C 1.519531 -1.304688 1.578125 -1.132812 1.578125 -0.90625 C 1.578125 -0.820312 1.578125 -0.757812 1.578125 -0.71875 Z M 1.203125 -0.953125 C 1.203125 -1.066406 1.175781 -1.148438 1.125 -1.203125 C 1.070312 -1.265625 1 -1.296875 0.90625 -1.296875 C 0.707031 -1.296875 0.585938 -1.179688 0.546875 -0.953125 Z M 1.203125 -0.953125 "/></g></g><g transform="translate(23.661189, 3.451615)"><g><path d="M 0.21875 0 L 0.21875 -1.5625 L 0.609375 -1.5625 L 0.609375 -1.328125 L 0.640625 -1.328125 C 0.734375 -1.503906 0.890625 -1.59375 1.109375 -1.59375 C 1.285156 -1.59375 1.414062 -1.539062 1.5 -1.4375 C 1.582031 -1.34375 1.625 -1.203125 1.625 -1.015625 L 1.625 0 L 1.234375 0 L 1.234375 -0.96875 C 1.234375 -1.070312 1.210938 -1.144531 1.171875 -1.1875 C 1.128906 -1.238281 1.0625 -1.265625 0.96875 -1.265625 C 0.863281 -1.265625 0.78125 -1.226562 0.71875 -1.15625 C 0.65625 -1.082031 0.625 -0.96875 0.625 -0.8125 L 0.625 0 Z M 0.21875 0 "/></g></g></g><g fill="#000000" fill-opacity="1"><g transform="translate(25.481376, 3.451615)"><g><path d="M 1.078125 -0.375 L 1.1875 -0.078125 C 1.144531 -0.046875 1.085938 -0.0195312 1.015625 0 C 0.953125 0.0195312 0.878906 0.03125 0.796875 0.03125 C 0.628906 0.03125 0.5 -0.015625 0.40625 -0.109375 C 0.320312 -0.203125 0.28125 -0.335938 0.28125 -0.515625 L 0.28125 -1.25 L 0.046875 -1.25 L 0.046875 -1.5625 L 0.28125 -1.5625 L 0.28125 -1.875 L 0.671875 -1.9375 L 0.671875 -1.5625 L 1.125 -1.5625 L 1.125 -1.25 L 0.671875 -1.25 L 0.671875 -0.546875 C 0.671875 -0.460938 0.6875 -0.398438 0.71875 -0.359375 C 0.757812 -0.328125 0.804688 -0.3125 0.859375 -0.3125 C 0.929688 -0.3125 0.992188 -0.332031 1.046875 -0.375 Z M 1.078125 -0.375 "/></g></g><g transform="translate(26.696251, 3.451615)"><g/></g><g transform="translate(27.380947, 3.451615)"><g><path d="M 1.546875 -0.6875 L 0.546875 -0.6875 C 0.554688 -0.550781 0.59375 -0.453125 0.65625 -0.390625 C 0.71875 -0.328125 0.804688 -0.296875 0.921875 -0.296875 C 1.015625 -0.296875 1.085938 -0.3125 1.140625 -0.34375 C 1.203125 -0.382812 1.25 -0.4375 1.28125 -0.5 L 1.3125 -0.5 L 1.578125 -0.34375 C 1.523438 -0.226562 1.445312 -0.132812 1.34375 -0.0625 C 1.238281 0 1.097656 0.03125 0.921875 0.03125 C 0.765625 0.03125 0.625 0 0.5 -0.0625 C 0.382812 -0.125 0.296875 -0.210938 0.234375 -0.328125 C 0.171875 -0.453125 0.140625 -0.601562 0.140625 -0.78125 C 0.140625 -0.957031 0.171875 -1.109375 0.234375 -1.234375 C 0.304688 -1.359375 0.398438 -1.445312 0.515625 -1.5 C 0.628906 -1.5625 0.757812 -1.59375 0.90625 -1.59375 C 1.125 -1.59375 1.289062 -1.535156 1.40625 -1.421875 C 1.519531 -1.304688 1.578125 -1.132812 1.578125 -0.90625 C 1.578125 -0.820312 1.578125 -0.757812 1.578125 -0.71875 Z M 1.203125 -0.953125 C 1.203125 -1.066406 1.175781 -1.148438 1.125 -1.203125 C 1.070312 -1.265625 1 -1.296875 0.90625 -1.296875 C 0.707031 -1.296875 0.585938 -1.179688 0.546875 -0.953125 Z M 1.203125 -0.953125 "/></g></g><g transform="translate(29.080639, 3.451615)"><g><path d="M 0.21875 0 L 0.21875 -1.5625 L 0.609375 -1.5625 L 0.609375 -1.328125 L 0.640625 -1.328125 C 0.734375 -1.503906 0.890625 -1.59375 1.109375 -1.59375 C 1.285156 -1.59375 1.414062 -1.539062 1.5 -1.4375 C 1.582031 -1.34375 1.625 -1.203125 1.625 -1.015625 L 1.625 0 L 1.234375 0 L 1.234375 -0.96875 C 1.234375 -1.070312 1.210938 -1.144531 1.171875 -1.1875 C 1.128906 -1.238281 1.0625 -1.265625 0.96875 -1.265625 C 0.863281 -1.265625 0.78125 -1.226562 0.71875 -1.15625 C 0.65625 -1.082031 0.625 -0.96875 0.625 -0.8125 L 0.625 0 Z M 0.21875 0 "/></g></g></g><g clip-path="url(#3122a8a5f7)"><g fill="#000000" fill-opacity="1"><g transform="translate(30.900826, 3.451615)"><g><path d="M 1.078125 -0.375 L 1.1875 -0.078125 C 1.144531 -0.046875 1.085938 -0.0195312 1.015625 0 C 0.953125 0.0195312 0.878906 0.03125 0.796875 0.03125 C 0.628906 0.03125 0.5 -0.015625 0.40625 -0.109375 C 0.320312 -0.203125 0.28125 -0.335938 0.28125 -0.515625 L 0.28125 -1.25 L 0.046875 -1.25 L 0.046875 -1.5625 L 0.28125 -1.5625 L 0.28125 -1.875 L 0.671875 -1.9375 L 0.671875 -1.5625 L 1.125 -1.5625 L 1.125 -1.25 L 0.671875 -1.25 L 0.671875 -0.546875 C 0.671875 -0.460938 0.6875 -0.398438 0.71875 -0.359375 C 0.757812 -0.328125 0.804688 -0.3125 0.859375 -0.3125 C 0.929688 -0.3125 0.992188 -0.332031 1.046875 -0.375 Z M 1.078125 -0.375 "/></g></g><g transform="translate(32.115701, 3.451615)"><g><path d="M 0.421875 -1.75 C 0.347656 -1.75 0.289062 -1.769531 0.25 -1.8125 C 0.207031 -1.851562 0.1875 -1.910156 0.1875 -1.984375 C 0.1875 -2.046875 0.207031 -2.097656 0.25 -2.140625 C 0.289062 -2.191406 0.347656 -2.21875 0.421875 -2.21875 C 0.472656 -2.21875 0.515625 -2.207031 0.546875 -2.1875 C 0.585938 -2.164062 0.617188 -2.132812 0.640625 -2.09375 C 0.660156 -2.0625 0.671875 -2.023438 0.671875 -1.984375 C 0.671875 -1.941406 0.660156 -1.898438 0.640625 -1.859375 C 0.617188 -1.828125 0.585938 -1.800781 0.546875 -1.78125 C 0.515625 -1.757812 0.472656 -1.75 0.421875 -1.75 Z M 0.21875 0 L 0.21875 -1.5625 L 0.625 -1.5625 L 0.625 0 Z M 0.21875 0 "/></g></g><g transform="translate(32.95775, 3.451615)"><g><path d="M 1.078125 -0.375 L 1.1875 -0.078125 C 1.144531 -0.046875 1.085938 -0.0195312 1.015625 0 C 0.953125 0.0195312 0.878906 0.03125 0.796875 0.03125 C 0.628906 0.03125 0.5 -0.015625 0.40625 -0.109375 C 0.320312 -0.203125 0.28125 -0.335938 0.28125 -0.515625 L 0.28125 -1.25 L 0.046875 -1.25 L 0.046875 -1.5625 L 0.28125 -1.5625 L 0.28125 -1.875 L 0.671875 -1.9375 L 0.671875 -1.5625 L 1.125 -1.5625 L 1.125 -1.25 L 0.671875 -1.25 L 0.671875 -0.546875 C 0.671875 -0.460938 0.6875 -0.398438 0.71875 -0.359375 C 0.757812 -0.328125 0.804688 -0.3125 0.859375 -0.3125 C 0.929688 -0.3125 0.992188 -0.332031 1.046875 -0.375 Z M 1.078125 -0.375 "/></g></g><g transform="translate(34.172625, 3.451615)"><g><path d="M 0.34375 0.671875 C 0.28125 0.671875 0.21875 0.664062 0.15625 0.65625 C 0.101562 0.644531 0.0625 0.628906 0.03125 0.609375 L 0.09375 0.296875 L 0.125 0.28125 C 0.144531 0.289062 0.171875 0.300781 0.203125 0.3125 C 0.242188 0.320312 0.28125 0.328125 0.3125 0.328125 C 0.375 0.328125 0.425781 0.316406 0.46875 0.296875 C 0.507812 0.273438 0.546875 0.242188 0.578125 0.203125 C 0.609375 0.171875 0.632812 0.125 0.65625 0.0625 L 0.03125 -1.5625 L 0.453125 -1.5625 L 0.828125 -0.484375 L 0.875 -0.484375 L 1.25 -1.5625 L 1.640625 -1.5625 L 1.015625 0.09375 C 0.960938 0.226562 0.90625 0.335938 0.84375 0.421875 C 0.789062 0.503906 0.722656 0.566406 0.640625 0.609375 C 0.554688 0.648438 0.457031 0.671875 0.34375 0.671875 Z M 0.34375 0.671875 "/></g></g></g></g></g></g></svg>